%TF.GenerationSoftware,KiCad,Pcbnew,(6.0.11)*%
%TF.CreationDate,2024-02-14T19:55:53+02:00*%
%TF.ProjectId,AI4EDGE_STM32_v6-rounded,41493445-4447-4455-9f53-544d33325f76,rev?*%
%TF.SameCoordinates,Original*%
%TF.FileFunction,Paste,Top*%
%TF.FilePolarity,Positive*%
%FSLAX46Y46*%
G04 Gerber Fmt 4.6, Leading zero omitted, Abs format (unit mm)*
G04 Created by KiCad (PCBNEW (6.0.11)) date 2024-02-14 19:55:53*
%MOMM*%
%LPD*%
G01*
G04 APERTURE LIST*
G04 Aperture macros list*
%AMRoundRect*
0 Rectangle with rounded corners*
0 $1 Rounding radius*
0 $2 $3 $4 $5 $6 $7 $8 $9 X,Y pos of 4 corners*
0 Add a 4 corners polygon primitive as box body*
4,1,4,$2,$3,$4,$5,$6,$7,$8,$9,$2,$3,0*
0 Add four circle primitives for the rounded corners*
1,1,$1+$1,$2,$3*
1,1,$1+$1,$4,$5*
1,1,$1+$1,$6,$7*
1,1,$1+$1,$8,$9*
0 Add four rect primitives between the rounded corners*
20,1,$1+$1,$2,$3,$4,$5,0*
20,1,$1+$1,$4,$5,$6,$7,0*
20,1,$1+$1,$6,$7,$8,$9,0*
20,1,$1+$1,$8,$9,$2,$3,0*%
%AMOutline5P*
0 Free polygon, 5 corners , with rotation*
0 The origin of the aperture is its center*
0 number of corners: always 5*
0 $1 to $10 corner X, Y*
0 $11 Rotation angle, in degrees counterclockwise*
0 create outline with 5 corners*
4,1,5,$1,$2,$3,$4,$5,$6,$7,$8,$9,$10,$1,$2,$11*%
%AMOutline6P*
0 Free polygon, 6 corners , with rotation*
0 The origin of the aperture is its center*
0 number of corners: always 6*
0 $1 to $12 corner X, Y*
0 $13 Rotation angle, in degrees counterclockwise*
0 create outline with 6 corners*
4,1,6,$1,$2,$3,$4,$5,$6,$7,$8,$9,$10,$11,$12,$1,$2,$13*%
%AMOutline7P*
0 Free polygon, 7 corners , with rotation*
0 The origin of the aperture is its center*
0 number of corners: always 7*
0 $1 to $14 corner X, Y*
0 $15 Rotation angle, in degrees counterclockwise*
0 create outline with 7 corners*
4,1,7,$1,$2,$3,$4,$5,$6,$7,$8,$9,$10,$11,$12,$13,$14,$1,$2,$15*%
%AMOutline8P*
0 Free polygon, 8 corners , with rotation*
0 The origin of the aperture is its center*
0 number of corners: always 8*
0 $1 to $16 corner X, Y*
0 $17 Rotation angle, in degrees counterclockwise*
0 create outline with 8 corners*
4,1,8,$1,$2,$3,$4,$5,$6,$7,$8,$9,$10,$11,$12,$13,$14,$15,$16,$1,$2,$17*%
G04 Aperture macros list end*
%ADD10RoundRect,0.140000X-0.170000X0.140000X-0.170000X-0.140000X0.170000X-0.140000X0.170000X0.140000X0*%
%ADD11RoundRect,0.225000X-0.250000X0.225000X-0.250000X-0.225000X0.250000X-0.225000X0.250000X0.225000X0*%
%ADD12R,0.450000X1.300000*%
%ADD13RoundRect,0.140000X0.170000X-0.140000X0.170000X0.140000X-0.170000X0.140000X-0.170000X-0.140000X0*%
%ADD14RoundRect,0.200000X0.275000X-0.200000X0.275000X0.200000X-0.275000X0.200000X-0.275000X-0.200000X0*%
%ADD15R,0.550000X1.500000*%
%ADD16RoundRect,0.218750X-0.256250X0.218750X-0.256250X-0.218750X0.256250X-0.218750X0.256250X0.218750X0*%
%ADD17RoundRect,0.038500X-0.411500X-0.236500X0.411500X-0.236500X0.411500X0.236500X-0.411500X0.236500X0*%
%ADD18RoundRect,0.225000X0.225000X0.250000X-0.225000X0.250000X-0.225000X-0.250000X0.225000X-0.250000X0*%
%ADD19RoundRect,0.135000X-0.185000X0.135000X-0.185000X-0.135000X0.185000X-0.135000X0.185000X0.135000X0*%
%ADD20RoundRect,0.150000X-0.150000X-0.700000X0.150000X-0.700000X0.150000X0.700000X-0.150000X0.700000X0*%
%ADD21RoundRect,0.250000X-0.250000X-1.150000X0.250000X-1.150000X0.250000X1.150000X-0.250000X1.150000X0*%
%ADD22RoundRect,0.200000X-0.275000X0.200000X-0.275000X-0.200000X0.275000X-0.200000X0.275000X0.200000X0*%
%ADD23RoundRect,0.218750X0.256250X-0.218750X0.256250X0.218750X-0.256250X0.218750X-0.256250X-0.218750X0*%
%ADD24RoundRect,0.094488X0.805512X-0.505512X0.805512X0.505512X-0.805512X0.505512X-0.805512X-0.505512X0*%
%ADD25Outline6P,-0.600000X0.900000X0.600000X0.900000X0.600000X-0.600000X0.300000X-0.900000X-0.300000X-0.900000X-0.600000X-0.600000X90.000000*%
%ADD26Outline6P,-0.600000X0.900000X0.600000X0.900000X0.600000X-0.600000X0.300000X-0.900000X-0.300000X-0.900000X-0.600000X-0.600000X180.000000*%
%ADD27RoundRect,0.094488X0.505512X0.805512X-0.505512X0.805512X-0.505512X-0.805512X0.505512X-0.805512X0*%
%ADD28Outline6P,-0.600000X0.900000X0.600000X0.900000X0.600000X-0.600000X0.300000X-0.900000X-0.300000X-0.900000X-0.600000X-0.600000X270.000000*%
%ADD29RoundRect,0.094488X-0.805512X0.505512X-0.805512X-0.505512X0.805512X-0.505512X0.805512X0.505512X0*%
%ADD30RoundRect,0.038500X0.411500X0.236500X-0.411500X0.236500X-0.411500X-0.236500X0.411500X-0.236500X0*%
%ADD31R,0.700000X0.450000*%
%ADD32RoundRect,0.218750X-0.218750X-0.256250X0.218750X-0.256250X0.218750X0.256250X-0.218750X0.256250X0*%
%ADD33RoundRect,0.225000X-0.225000X-0.250000X0.225000X-0.250000X0.225000X0.250000X-0.225000X0.250000X0*%
%ADD34RoundRect,0.200000X0.200000X0.275000X-0.200000X0.275000X-0.200000X-0.275000X0.200000X-0.275000X0*%
%ADD35RoundRect,0.218750X0.218750X0.256250X-0.218750X0.256250X-0.218750X-0.256250X0.218750X-0.256250X0*%
G04 APERTURE END LIST*
D10*
%TO.C,C15*%
X104500000Y-79770000D03*
X104500000Y-80730000D03*
%TD*%
D11*
%TO.C,C24*%
X151500000Y-84225000D03*
X151500000Y-85775000D03*
%TD*%
D12*
%TO.C,J1*%
X143800000Y-71900000D03*
X143150000Y-71900000D03*
X142500000Y-71900000D03*
X141850000Y-71900000D03*
X141200000Y-71900000D03*
%TD*%
D13*
%TO.C,C4*%
X150000000Y-70730000D03*
X150000000Y-69770000D03*
%TD*%
D10*
%TO.C,C9*%
X110500000Y-79770000D03*
X110500000Y-80730000D03*
%TD*%
%TO.C,C17*%
X104500000Y-99790000D03*
X104500000Y-100750000D03*
%TD*%
D14*
%TO.C,R20*%
X129000000Y-94575000D03*
X129000000Y-92925000D03*
%TD*%
D13*
%TO.C,C14*%
X139500000Y-99730000D03*
X139500000Y-98770000D03*
%TD*%
D11*
%TO.C,C26*%
X151500000Y-104225000D03*
X151500000Y-105775000D03*
%TD*%
D13*
%TO.C,C18*%
X145500000Y-79730000D03*
X145500000Y-78770000D03*
%TD*%
D11*
%TO.C,C22*%
X94000000Y-94225000D03*
X94000000Y-95775000D03*
%TD*%
D13*
%TO.C,C13*%
X139500000Y-89730000D03*
X139500000Y-88770000D03*
%TD*%
D15*
%TO.C,SW3*%
X140875000Y-84750000D03*
X144125000Y-84750000D03*
%TD*%
D16*
%TO.C,D4*%
X121000000Y-92962500D03*
X121000000Y-94537500D03*
%TD*%
D17*
%TO.C,U6*%
X141250000Y-98800000D03*
X141250000Y-99750000D03*
X141250000Y-100700000D03*
X143750000Y-100700000D03*
X143750000Y-98800000D03*
%TD*%
D18*
%TO.C,C2*%
X143275000Y-103250000D03*
X141725000Y-103250000D03*
%TD*%
D19*
%TO.C,R7*%
X138500000Y-74240000D03*
X138500000Y-75260000D03*
%TD*%
D14*
%TO.C,R4*%
X136750000Y-77825000D03*
X136750000Y-76175000D03*
%TD*%
D13*
%TO.C,C10*%
X110500000Y-90730000D03*
X110500000Y-89770000D03*
%TD*%
D17*
%TO.C,U5*%
X141250000Y-88800000D03*
X141250000Y-89750000D03*
X141250000Y-90700000D03*
X143750000Y-90700000D03*
X143750000Y-88800000D03*
%TD*%
D20*
%TO.C,J6*%
X94375000Y-101950000D03*
X95625000Y-101950000D03*
X96875000Y-101950000D03*
X98125000Y-101950000D03*
D21*
X92525000Y-98600000D03*
X99975000Y-98600000D03*
%TD*%
D11*
%TO.C,C25*%
X151500000Y-94225000D03*
X151500000Y-95775000D03*
%TD*%
D22*
%TO.C,R2*%
X99750000Y-73925000D03*
X99750000Y-75575000D03*
%TD*%
%TO.C,R14*%
X119000000Y-92925000D03*
X119000000Y-94575000D03*
%TD*%
D23*
%TO.C,FB2*%
X126000000Y-96287500D03*
X126000000Y-94712500D03*
%TD*%
D24*
%TO.C,M1*%
X115300000Y-67000000D03*
X115300000Y-69000000D03*
X115300000Y-71000000D03*
X115300000Y-73000000D03*
X115300000Y-75000000D03*
X115300000Y-77000000D03*
X115300000Y-79000000D03*
X115300000Y-81000000D03*
X115300000Y-83000000D03*
X115300000Y-85000000D03*
X115300000Y-87000000D03*
D25*
X115300000Y-89000000D03*
D26*
X117000000Y-90900000D03*
D27*
X119000000Y-90900000D03*
X121000000Y-90900000D03*
X123000000Y-90900000D03*
X127000000Y-90900000D03*
X129000000Y-90900000D03*
X131000000Y-90900000D03*
D26*
X133000000Y-90900000D03*
D28*
X134700000Y-89000000D03*
D29*
X134700000Y-87000000D03*
X134700000Y-85000000D03*
X134700000Y-83000000D03*
X134700000Y-81000000D03*
X134700000Y-79000000D03*
X134700000Y-77000000D03*
X134700000Y-75000000D03*
X134700000Y-73000000D03*
X134700000Y-71000000D03*
X134700000Y-69000000D03*
X134700000Y-67000000D03*
%TD*%
D30*
%TO.C,U3*%
X108750000Y-100700000D03*
X108750000Y-99750000D03*
X108750000Y-98800000D03*
X106250000Y-98800000D03*
X106250000Y-100700000D03*
%TD*%
D22*
%TO.C,R11*%
X97000000Y-94175000D03*
X97000000Y-95825000D03*
%TD*%
%TO.C,R12*%
X98500000Y-84175000D03*
X98500000Y-85825000D03*
%TD*%
%TO.C,R9*%
X153000000Y-73925000D03*
X153000000Y-75575000D03*
%TD*%
D20*
%TO.C,J5*%
X94375000Y-91950000D03*
X95625000Y-91950000D03*
X96875000Y-91950000D03*
X98125000Y-91950000D03*
D21*
X99975000Y-88600000D03*
X92525000Y-88600000D03*
%TD*%
D19*
%TO.C,R8*%
X139500000Y-74240000D03*
X139500000Y-75260000D03*
%TD*%
D16*
%TO.C,FB4*%
X95500000Y-94212500D03*
X95500000Y-95787500D03*
%TD*%
D31*
%TO.C,D3*%
X114250000Y-100400000D03*
X114250000Y-99100000D03*
X112250000Y-99750000D03*
%TD*%
D16*
%TO.C,FB3*%
X95504000Y-84212500D03*
X95504000Y-85787500D03*
%TD*%
D32*
%TO.C,D2*%
X105212500Y-77000000D03*
X106787500Y-77000000D03*
%TD*%
D11*
%TO.C,C21*%
X94000000Y-84225000D03*
X94000000Y-85775000D03*
%TD*%
D17*
%TO.C,U4*%
X141250000Y-78800000D03*
X141250000Y-79750000D03*
X141250000Y-80700000D03*
X143750000Y-80700000D03*
X143750000Y-78800000D03*
%TD*%
D22*
%TO.C,R10*%
X98500000Y-94175000D03*
X98500000Y-95825000D03*
%TD*%
D11*
%TO.C,C23*%
X94000000Y-104225000D03*
X94000000Y-105775000D03*
%TD*%
D20*
%TO.C,J4*%
X94375000Y-81950000D03*
X95625000Y-81950000D03*
X96875000Y-81950000D03*
X98125000Y-81950000D03*
D21*
X99975000Y-78600000D03*
X92525000Y-78600000D03*
%TD*%
D20*
%TO.C,J7*%
X151875000Y-81950000D03*
X153125000Y-81950000D03*
X154375000Y-81950000D03*
X155625000Y-81950000D03*
D21*
X157475000Y-78600000D03*
X150025000Y-78600000D03*
%TD*%
D22*
%TO.C,R6*%
X136750000Y-86175000D03*
X136750000Y-87825000D03*
%TD*%
D18*
%TO.C,C6*%
X125775000Y-103000000D03*
X124225000Y-103000000D03*
%TD*%
D16*
%TO.C,FB6*%
X153000000Y-84212500D03*
X153000000Y-85787500D03*
%TD*%
D22*
%TO.C,R18*%
X98500000Y-104175000D03*
X98500000Y-105825000D03*
%TD*%
D20*
%TO.C,J9*%
X151875000Y-101950000D03*
X153125000Y-101950000D03*
X154375000Y-101950000D03*
X155625000Y-101950000D03*
D21*
X157475000Y-98600000D03*
X150025000Y-98600000D03*
%TD*%
D22*
%TO.C,R5*%
X154500000Y-73925000D03*
X154500000Y-75575000D03*
%TD*%
D13*
%TO.C,C19*%
X145500000Y-89730000D03*
X145500000Y-88770000D03*
%TD*%
D33*
%TO.C,C1*%
X98225000Y-69890000D03*
X99775000Y-69890000D03*
%TD*%
D22*
%TO.C,R13*%
X97000000Y-84175000D03*
X97000000Y-85825000D03*
%TD*%
D14*
%TO.C,R19*%
X131000000Y-94575000D03*
X131000000Y-92925000D03*
%TD*%
D15*
%TO.C,SW1*%
X109125000Y-74750000D03*
X105875000Y-74750000D03*
%TD*%
D18*
%TO.C,C7*%
X125775000Y-93000000D03*
X124225000Y-93000000D03*
%TD*%
D34*
%TO.C,R3*%
X109825000Y-77000000D03*
X108175000Y-77000000D03*
%TD*%
D13*
%TO.C,C12*%
X139500000Y-79730000D03*
X139500000Y-78770000D03*
%TD*%
D22*
%TO.C,R17*%
X97000000Y-104175000D03*
X97000000Y-105825000D03*
%TD*%
D34*
%TO.C,R1*%
X109825000Y-72500000D03*
X108175000Y-72500000D03*
%TD*%
D15*
%TO.C,SW2*%
X140875000Y-74750000D03*
X144125000Y-74750000D03*
%TD*%
D13*
%TO.C,C20*%
X145500000Y-99730000D03*
X145500000Y-98770000D03*
%TD*%
D30*
%TO.C,U2*%
X108750000Y-90700000D03*
X108750000Y-89750000D03*
X108750000Y-88800000D03*
X106250000Y-88800000D03*
X106250000Y-90700000D03*
%TD*%
D22*
%TO.C,R16*%
X156000000Y-104175000D03*
X156000000Y-105825000D03*
%TD*%
D18*
%TO.C,C5*%
X143275000Y-87000000D03*
X141725000Y-87000000D03*
%TD*%
D20*
%TO.C,J8*%
X151875000Y-91950000D03*
X153125000Y-91950000D03*
X154375000Y-91950000D03*
X155625000Y-91950000D03*
D21*
X157475000Y-88600000D03*
X150025000Y-88600000D03*
%TD*%
D32*
%TO.C,D1*%
X105212500Y-72500000D03*
X106787500Y-72500000D03*
%TD*%
D16*
%TO.C,FB8*%
X153000000Y-104212500D03*
X153000000Y-105787500D03*
%TD*%
D30*
%TO.C,U1*%
X108750000Y-80700000D03*
X108750000Y-79750000D03*
X108750000Y-78800000D03*
X106250000Y-78800000D03*
X106250000Y-80700000D03*
%TD*%
D16*
%TO.C,FB7*%
X153000000Y-94212500D03*
X153000000Y-95787500D03*
%TD*%
D10*
%TO.C,C16*%
X104500000Y-89770000D03*
X104500000Y-90730000D03*
%TD*%
%TO.C,C11*%
X110500000Y-99770000D03*
X110500000Y-100730000D03*
%TD*%
D35*
%TO.C,FB1*%
X103037500Y-69890000D03*
X101462500Y-69890000D03*
%TD*%
D18*
%TO.C,C3*%
X143275000Y-77000000D03*
X141725000Y-77000000D03*
%TD*%
D11*
%TO.C,C8*%
X124000000Y-94725000D03*
X124000000Y-96275000D03*
%TD*%
D16*
%TO.C,FB5*%
X95500000Y-104212500D03*
X95500000Y-105787500D03*
%TD*%
D22*
%TO.C,R15*%
X154500000Y-104175000D03*
X154500000Y-105825000D03*
%TD*%
M02*
