M48
; DRILL file {KiCad (6.0.11)} date Wed Feb 14 19:56:17 2024
; FORMAT={-:-/ absolute / metric / decimal}
; #@! TF.CreationDate,2024-02-14T19:56:17+02:00
; #@! TF.GenerationSoftware,Kicad,Pcbnew,(6.0.11)
; #@! TF.FileFunction,Plated,1,2,PTH
FMAT,2
METRIC
; #@! TA.AperFunction,Plated,PTH,ViaDrill
T1C0.300
; #@! TA.AperFunction,Plated,PTH,ViaDrill
T2C0.400
; #@! TA.AperFunction,Plated,PTH,ComponentDrill
T3C0.500
; #@! TA.AperFunction,Plated,PTH,ComponentDrill
T4C0.508
; #@! TA.AperFunction,Plated,PTH,ComponentDrill
T5C1.000
; #@! TA.AperFunction,Plated,PTH,ComponentDrill
T6C1.200
; #@! TA.AperFunction,Plated,PTH,ComponentDrill
T7C1.400
; #@! TA.AperFunction,Plated,PTH,ComponentDrill
T8C2.500
%
G90
G05
T1
X97.0Y-86.75
X97.0Y-96.75
X97.0Y-106.75
X98.5Y-86.75
X98.5Y-96.75
X98.5Y-106.75
X99.75Y-108.75
X100.5Y-110.5
X102.0Y-107.25
X102.75Y-108.0
X110.5Y-78.75
X110.5Y-88.75
X110.5Y-98.75
X111.0Y-72.55
X111.0Y-77.0
X113.5Y-71.0
X113.5Y-73.0
X113.5Y-75.0
X113.5Y-79.03
X113.5Y-81.0
X113.5Y-83.0
X119.25Y-114.0
X122.428Y-111.75
X133.0Y-93.0
X134.986Y-95.514
X135.75Y-95.5
X136.75Y-81.0
X136.75Y-83.0
X136.75Y-85.0
X136.75Y-89.0
X138.5Y-76.0
X139.5Y-76.0
X140.5Y-87.0
X141.25Y-81.75
X141.25Y-91.75
X141.25Y-101.75
T2
X92.5Y-76.75
X92.5Y-86.75
X92.5Y-96.75
X93.0Y-82.0
X93.0Y-92.0
X93.0Y-102.0
X96.25Y-112.5
X97.5Y-67.0
X97.75Y-98.5
X97.75Y-108.75
X99.5Y-82.0
X99.5Y-92.0
X99.5Y-102.0
X99.75Y-112.5
X100.0Y-67.0
X100.0Y-76.75
X100.0Y-86.75
X100.0Y-96.75
X101.25Y-106.25
X102.5Y-67.0
X102.75Y-74.0
X104.75Y-109.25
X104.75Y-119.5
X105.0Y-67.0
X107.188Y-111.5
X107.5Y-67.0
X107.5Y-74.75
X107.5Y-79.75
X107.5Y-89.75
X107.5Y-99.75
X107.5Y-103.0
X108.5Y-109.25
X108.5Y-119.5
X110.0Y-67.0
X111.0Y-71.75
X111.0Y-73.5
X111.0Y-76.0
X111.0Y-78.0
X112.5Y-67.0
X112.5Y-70.0
X112.5Y-71.75
X112.5Y-73.5
X112.5Y-77.0
X112.5Y-89.75
X113.0Y-94.75
X113.0Y-96.25
X113.0Y-97.75
X113.5Y-119.5
X114.75Y-109.25
X117.0Y-77.0
X117.0Y-87.0
X117.0Y-95.5
X117.0Y-97.75
X117.25Y-109.25
X117.5Y-67.0
X118.0Y-119.5
X120.0Y-67.0
X120.0Y-111.25
X121.0Y-97.75
X121.25Y-116.25
X121.25Y-119.5
X122.5Y-67.0
X123.0Y-93.0
X123.25Y-102.0
X123.75Y-109.25
X123.75Y-111.25
X123.75Y-113.75
X123.75Y-119.5
X125.0Y-67.0
X125.0Y-74.0
X125.0Y-77.0
X125.0Y-104.0
X126.75Y-102.0
X127.5Y-67.0
X128.25Y-119.5
X129.0Y-97.75
X129.0Y-109.25
X129.25Y-111.25
X130.0Y-67.0
X130.0Y-104.25
X132.25Y-93.75
X132.5Y-67.0
X132.5Y-104.25
X132.5Y-107.75
X133.0Y-71.0
X133.0Y-77.0
X133.0Y-87.0
X133.75Y-119.5
X134.0Y-97.75
X135.0Y-107.75
X137.0Y-93.75
X137.0Y-97.75
X137.5Y-67.0
X137.5Y-104.25
X138.0Y-77.75
X139.0Y-107.75
X140.0Y-67.0
X141.5Y-119.5
X142.5Y-67.0
X142.5Y-74.75
X142.5Y-79.75
X142.5Y-84.75
X142.5Y-89.75
X142.5Y-99.75
X142.75Y-107.75
X145.0Y-67.0
X145.25Y-107.75
X147.5Y-67.0
X150.0Y-67.0
X150.0Y-76.75
X150.0Y-86.75
X150.0Y-96.75
X150.5Y-82.0
X150.5Y-92.0
X150.5Y-102.0
X152.5Y-67.0
X155.25Y-106.75
X157.0Y-82.0
X157.0Y-92.0
X157.0Y-102.0
X157.5Y-76.75
X157.5Y-86.75
X157.5Y-96.75
T3
X91.875Y-68.75
X91.875Y-123.75
X92.424Y-67.424
X92.424Y-70.076
X92.424Y-122.424
X92.424Y-125.076
X93.75Y-66.875
X93.75Y-70.625
X93.75Y-121.875
X93.75Y-125.625
X95.076Y-67.424
X95.076Y-70.076
X95.076Y-122.424
X95.076Y-125.076
X95.625Y-68.75
X95.625Y-123.75
X154.375Y-68.75
X154.375Y-123.75
X154.924Y-67.424
X154.924Y-70.076
X154.924Y-122.424
X154.924Y-125.076
X156.25Y-66.875
X156.25Y-70.625
X156.25Y-121.875
X156.25Y-125.625
X157.576Y-67.424
X157.576Y-70.076
X157.576Y-122.424
X157.576Y-125.076
X158.125Y-68.75
X158.125Y-123.75
T4
X104.96Y-68.615
X104.96Y-69.885
X106.23Y-68.615
X106.23Y-69.885
X107.5Y-68.615
X107.5Y-69.885
X108.77Y-68.615
X108.77Y-69.885
X110.04Y-68.615
X110.04Y-69.885
T5
X107.188Y-106.172
X107.188Y-121.412
X109.728Y-106.172
X109.728Y-121.412
X112.268Y-106.172
X112.268Y-121.412
X114.808Y-106.172
X114.808Y-121.412
X117.348Y-106.172
X117.348Y-121.412
X119.888Y-106.172
X119.888Y-121.412
X122.428Y-106.172
X122.428Y-121.412
X123.75Y-99.45
X124.968Y-106.172
X124.968Y-121.412
X126.25Y-99.45
X127.508Y-106.172
X127.508Y-121.412
X130.048Y-106.172
X130.048Y-121.412
X132.588Y-106.172
X132.588Y-121.412
X135.128Y-106.172
X135.128Y-121.412
X137.668Y-106.172
X137.668Y-121.412
X140.208Y-106.172
X140.208Y-121.412
X142.748Y-106.172
X142.748Y-121.412
T6
X138.625Y-68.05
X146.375Y-68.05
T7
X138.775Y-71.85
X146.225Y-71.85
T8
X93.75Y-68.75
X93.75Y-123.75
X156.25Y-68.75
X156.25Y-123.75
T0
M30
