%TF.GenerationSoftware,KiCad,Pcbnew,(6.0.11)*%
%TF.CreationDate,2024-02-14T19:55:53+02:00*%
%TF.ProjectId,AI4EDGE_STM32_v6-rounded,41493445-4447-4455-9f53-544d33325f76,rev?*%
%TF.SameCoordinates,Original*%
%TF.FileFunction,Legend,Top*%
%TF.FilePolarity,Positive*%
%FSLAX46Y46*%
G04 Gerber Fmt 4.6, Leading zero omitted, Abs format (unit mm)*
G04 Created by KiCad (PCBNEW (6.0.11)) date 2024-02-14 19:55:53*
%MOMM*%
%LPD*%
G01*
G04 APERTURE LIST*
G04 Aperture macros list*
%AMRoundRect*
0 Rectangle with rounded corners*
0 $1 Rounding radius*
0 $2 $3 $4 $5 $6 $7 $8 $9 X,Y pos of 4 corners*
0 Add a 4 corners polygon primitive as box body*
4,1,4,$2,$3,$4,$5,$6,$7,$8,$9,$2,$3,0*
0 Add four circle primitives for the rounded corners*
1,1,$1+$1,$2,$3*
1,1,$1+$1,$4,$5*
1,1,$1+$1,$6,$7*
1,1,$1+$1,$8,$9*
0 Add four rect primitives between the rounded corners*
20,1,$1+$1,$2,$3,$4,$5,0*
20,1,$1+$1,$4,$5,$6,$7,0*
20,1,$1+$1,$6,$7,$8,$9,0*
20,1,$1+$1,$8,$9,$2,$3,0*%
%AMOutline5P*
0 Free polygon, 5 corners , with rotation*
0 The origin of the aperture is its center*
0 number of corners: always 5*
0 $1 to $10 corner X, Y*
0 $11 Rotation angle, in degrees counterclockwise*
0 create outline with 5 corners*
4,1,5,$1,$2,$3,$4,$5,$6,$7,$8,$9,$10,$1,$2,$11*%
%AMOutline6P*
0 Free polygon, 6 corners , with rotation*
0 The origin of the aperture is its center*
0 number of corners: always 6*
0 $1 to $12 corner X, Y*
0 $13 Rotation angle, in degrees counterclockwise*
0 create outline with 6 corners*
4,1,6,$1,$2,$3,$4,$5,$6,$7,$8,$9,$10,$11,$12,$1,$2,$13*%
%AMOutline7P*
0 Free polygon, 7 corners , with rotation*
0 The origin of the aperture is its center*
0 number of corners: always 7*
0 $1 to $14 corner X, Y*
0 $15 Rotation angle, in degrees counterclockwise*
0 create outline with 7 corners*
4,1,7,$1,$2,$3,$4,$5,$6,$7,$8,$9,$10,$11,$12,$13,$14,$1,$2,$15*%
%AMOutline8P*
0 Free polygon, 8 corners , with rotation*
0 The origin of the aperture is its center*
0 number of corners: always 8*
0 $1 to $16 corner X, Y*
0 $17 Rotation angle, in degrees counterclockwise*
0 create outline with 8 corners*
4,1,8,$1,$2,$3,$4,$5,$6,$7,$8,$9,$10,$11,$12,$13,$14,$15,$16,$1,$2,$17*%
G04 Aperture macros list end*
%ADD10C,0.150000*%
%ADD11C,0.120000*%
%ADD12C,0.127000*%
%ADD13C,0.200000*%
%ADD14C,0.050000*%
%ADD15C,0.254000*%
%ADD16RoundRect,0.140000X-0.170000X0.140000X-0.170000X-0.140000X0.170000X-0.140000X0.170000X0.140000X0*%
%ADD17RoundRect,0.225000X-0.250000X0.225000X-0.250000X-0.225000X0.250000X-0.225000X0.250000X0.225000X0*%
%ADD18C,0.800000*%
%ADD19R,0.450000X1.300000*%
%ADD20C,2.000000*%
%ADD21C,1.800000*%
%ADD22RoundRect,0.140000X0.170000X-0.140000X0.170000X0.140000X-0.170000X0.140000X-0.170000X-0.140000X0*%
%ADD23RoundRect,0.200000X0.275000X-0.200000X0.275000X0.200000X-0.275000X0.200000X-0.275000X-0.200000X0*%
%ADD24RoundRect,0.102000X-0.275000X-0.750000X0.275000X-0.750000X0.275000X0.750000X-0.275000X0.750000X0*%
%ADD25RoundRect,0.218750X-0.256250X0.218750X-0.256250X-0.218750X0.256250X-0.218750X0.256250X0.218750X0*%
%ADD26RoundRect,0.038500X-0.411500X-0.236500X0.411500X-0.236500X0.411500X0.236500X-0.411500X0.236500X0*%
%ADD27C,1.700000*%
%ADD28R,1.700000X1.700000*%
%ADD29O,1.700000X1.700000*%
%ADD30RoundRect,0.225000X0.225000X0.250000X-0.225000X0.250000X-0.225000X-0.250000X0.225000X-0.250000X0*%
%ADD31RoundRect,0.135000X-0.185000X0.135000X-0.185000X-0.135000X0.185000X-0.135000X0.185000X0.135000X0*%
%ADD32RoundRect,0.150000X-0.150000X-0.700000X0.150000X-0.700000X0.150000X0.700000X-0.150000X0.700000X0*%
%ADD33RoundRect,0.250000X-0.250000X-1.150000X0.250000X-1.150000X0.250000X1.150000X-0.250000X1.150000X0*%
%ADD34RoundRect,0.200000X-0.275000X0.200000X-0.275000X-0.200000X0.275000X-0.200000X0.275000X0.200000X0*%
%ADD35RoundRect,0.218750X0.256250X-0.218750X0.256250X0.218750X-0.256250X0.218750X-0.256250X-0.218750X0*%
%ADD36C,5.000000*%
%ADD37RoundRect,0.094488X0.805512X-0.505512X0.805512X0.505512X-0.805512X0.505512X-0.805512X-0.505512X0*%
%ADD38Outline6P,-0.600000X0.900000X0.600000X0.900000X0.600000X-0.600000X0.300000X-0.900000X-0.300000X-0.900000X-0.600000X-0.600000X90.000000*%
%ADD39Outline6P,-0.600000X0.900000X0.600000X0.900000X0.600000X-0.600000X0.300000X-0.900000X-0.300000X-0.900000X-0.600000X-0.600000X180.000000*%
%ADD40RoundRect,0.094488X0.505512X0.805512X-0.505512X0.805512X-0.505512X-0.805512X0.505512X-0.805512X0*%
%ADD41Outline6P,-0.600000X0.900000X0.600000X0.900000X0.600000X-0.600000X0.300000X-0.900000X-0.300000X-0.900000X-0.600000X-0.600000X270.000000*%
%ADD42RoundRect,0.094488X-0.805512X0.505512X-0.805512X-0.505512X0.805512X-0.505512X0.805512X0.505512X0*%
%ADD43RoundRect,0.038500X0.411500X0.236500X-0.411500X0.236500X-0.411500X-0.236500X0.411500X-0.236500X0*%
%ADD44R,0.700000X0.450000*%
%ADD45RoundRect,0.218750X-0.218750X-0.256250X0.218750X-0.256250X0.218750X0.256250X-0.218750X0.256250X0*%
%ADD46C,1.203200*%
%ADD47RoundRect,0.225000X-0.225000X-0.250000X0.225000X-0.250000X0.225000X0.250000X-0.225000X0.250000X0*%
%ADD48RoundRect,0.102000X0.275000X0.750000X-0.275000X0.750000X-0.275000X-0.750000X0.275000X-0.750000X0*%
%ADD49RoundRect,0.200000X0.200000X0.275000X-0.200000X0.275000X-0.200000X-0.275000X0.200000X-0.275000X0*%
%ADD50RoundRect,0.250000X-0.600000X-0.750000X0.600000X-0.750000X0.600000X0.750000X-0.600000X0.750000X0*%
%ADD51O,1.700000X2.000000*%
%ADD52RoundRect,0.218750X0.218750X0.256250X-0.218750X0.256250X-0.218750X-0.256250X0.218750X-0.256250X0*%
G04 APERTURE END LIST*
D10*
X101250000Y-103750000D02*
X99250000Y-103750000D01*
X150750000Y-103750000D02*
X148750000Y-103750000D01*
X158750000Y-76250000D02*
X158750000Y-103750000D01*
X148750000Y-103750000D02*
X148750000Y-76250000D01*
X91250000Y-76250000D02*
X101250000Y-76250000D01*
X158750000Y-103750000D02*
X156750000Y-103750000D01*
X148750000Y-76250000D02*
X158750000Y-76250000D01*
X91250000Y-103750000D02*
X91250000Y-76250000D01*
X101250000Y-103750000D02*
X101250000Y-76250000D01*
D11*
X122883333Y-126641666D02*
X123216666Y-126641666D01*
X122816666Y-126884523D02*
X123050000Y-126034523D01*
X123283333Y-126884523D01*
X123516666Y-126884523D02*
X123516666Y-126034523D01*
X124283333Y-126479761D02*
X124250000Y-126439285D01*
X124183333Y-126398809D01*
X124116666Y-126398809D01*
X124050000Y-126439285D01*
X124016666Y-126479761D01*
X123983333Y-126560714D01*
X123983333Y-126641666D01*
X124016666Y-126722619D01*
X124050000Y-126763095D01*
X124116666Y-126803571D01*
X124183333Y-126803571D01*
X124250000Y-126763095D01*
X124283333Y-126722619D01*
X124283333Y-126398809D02*
X124283333Y-126722619D01*
X124316666Y-126763095D01*
X124350000Y-126763095D01*
X124416666Y-126722619D01*
X124450000Y-126641666D01*
X124450000Y-126439285D01*
X124383333Y-126317857D01*
X124283333Y-126236904D01*
X124150000Y-126196428D01*
X124016666Y-126236904D01*
X123916666Y-126317857D01*
X123850000Y-126439285D01*
X123816666Y-126601190D01*
X123850000Y-126763095D01*
X123916666Y-126884523D01*
X124016666Y-126965476D01*
X124150000Y-127005952D01*
X124283333Y-126965476D01*
X124383333Y-126884523D01*
X124750000Y-126439285D02*
X124983333Y-126439285D01*
X125083333Y-126884523D02*
X124750000Y-126884523D01*
X124750000Y-126034523D01*
X125083333Y-126034523D01*
X125383333Y-126884523D02*
X125383333Y-126034523D01*
X125550000Y-126034523D01*
X125650000Y-126075000D01*
X125716666Y-126155952D01*
X125750000Y-126236904D01*
X125783333Y-126398809D01*
X125783333Y-126520238D01*
X125750000Y-126682142D01*
X125716666Y-126763095D01*
X125650000Y-126844047D01*
X125550000Y-126884523D01*
X125383333Y-126884523D01*
X126450000Y-126075000D02*
X126383333Y-126034523D01*
X126283333Y-126034523D01*
X126183333Y-126075000D01*
X126116666Y-126155952D01*
X126083333Y-126236904D01*
X126050000Y-126398809D01*
X126050000Y-126520238D01*
X126083333Y-126682142D01*
X126116666Y-126763095D01*
X126183333Y-126844047D01*
X126283333Y-126884523D01*
X126350000Y-126884523D01*
X126450000Y-126844047D01*
X126483333Y-126803571D01*
X126483333Y-126520238D01*
X126350000Y-126520238D01*
X126783333Y-126439285D02*
X127016666Y-126439285D01*
X127116666Y-126884523D02*
X126783333Y-126884523D01*
X126783333Y-126034523D01*
X127116666Y-126034523D01*
X102733333Y-75134523D02*
X102500000Y-74729761D01*
X102333333Y-75134523D02*
X102333333Y-74284523D01*
X102600000Y-74284523D01*
X102666666Y-74325000D01*
X102700000Y-74365476D01*
X102733333Y-74446428D01*
X102733333Y-74567857D01*
X102700000Y-74648809D01*
X102666666Y-74689285D01*
X102600000Y-74729761D01*
X102333333Y-74729761D01*
X103033333Y-74689285D02*
X103266666Y-74689285D01*
X103366666Y-75134523D02*
X103033333Y-75134523D01*
X103033333Y-74284523D01*
X103366666Y-74284523D01*
X103633333Y-75094047D02*
X103733333Y-75134523D01*
X103900000Y-75134523D01*
X103966666Y-75094047D01*
X104000000Y-75053571D01*
X104033333Y-74972619D01*
X104033333Y-74891666D01*
X104000000Y-74810714D01*
X103966666Y-74770238D01*
X103900000Y-74729761D01*
X103766666Y-74689285D01*
X103700000Y-74648809D01*
X103666666Y-74608333D01*
X103633333Y-74527380D01*
X103633333Y-74446428D01*
X103666666Y-74365476D01*
X103700000Y-74325000D01*
X103766666Y-74284523D01*
X103933333Y-74284523D01*
X104033333Y-74325000D01*
X104333333Y-74689285D02*
X104566666Y-74689285D01*
X104666666Y-75134523D02*
X104333333Y-75134523D01*
X104333333Y-74284523D01*
X104666666Y-74284523D01*
X104866666Y-74284523D02*
X105266666Y-74284523D01*
X105066666Y-75134523D02*
X105066666Y-74284523D01*
X122283333Y-123707416D02*
X122616666Y-123707416D01*
X122216666Y-123950273D02*
X122450000Y-123100273D01*
X122683333Y-123950273D01*
X122916666Y-123950273D02*
X122916666Y-123383607D01*
X122916666Y-123100273D02*
X122883333Y-123140750D01*
X122916666Y-123181226D01*
X122950000Y-123140750D01*
X122916666Y-123100273D01*
X122916666Y-123181226D01*
X123250000Y-123950273D02*
X123250000Y-123383607D01*
X123250000Y-123545511D02*
X123283333Y-123464559D01*
X123316666Y-123424083D01*
X123383333Y-123383607D01*
X123450000Y-123383607D01*
X123683333Y-123950273D02*
X123683333Y-123100273D01*
X124083333Y-123950273D01*
X124083333Y-123100273D01*
X124516666Y-123950273D02*
X124450000Y-123909797D01*
X124416666Y-123869321D01*
X124383333Y-123788369D01*
X124383333Y-123545511D01*
X124416666Y-123464559D01*
X124450000Y-123424083D01*
X124516666Y-123383607D01*
X124616666Y-123383607D01*
X124683333Y-123424083D01*
X124716666Y-123464559D01*
X124750000Y-123545511D01*
X124750000Y-123788369D01*
X124716666Y-123869321D01*
X124683333Y-123909797D01*
X124616666Y-123950273D01*
X124516666Y-123950273D01*
X125350000Y-123950273D02*
X125350000Y-123100273D01*
X125350000Y-123909797D02*
X125283333Y-123950273D01*
X125150000Y-123950273D01*
X125083333Y-123909797D01*
X125050000Y-123869321D01*
X125016666Y-123788369D01*
X125016666Y-123545511D01*
X125050000Y-123464559D01*
X125083333Y-123424083D01*
X125150000Y-123383607D01*
X125283333Y-123383607D01*
X125350000Y-123424083D01*
X125950000Y-123909797D02*
X125883333Y-123950273D01*
X125750000Y-123950273D01*
X125683333Y-123909797D01*
X125650000Y-123828845D01*
X125650000Y-123505035D01*
X125683333Y-123424083D01*
X125750000Y-123383607D01*
X125883333Y-123383607D01*
X125950000Y-123424083D01*
X125983333Y-123505035D01*
X125983333Y-123585988D01*
X125650000Y-123666940D01*
X126116666Y-124031226D02*
X126650000Y-124031226D01*
X126750000Y-123383607D02*
X126916666Y-123950273D01*
X127083333Y-123383607D01*
X127650000Y-123100273D02*
X127516666Y-123100273D01*
X127450000Y-123140750D01*
X127416666Y-123181226D01*
X127350000Y-123302654D01*
X127316666Y-123464559D01*
X127316666Y-123788369D01*
X127350000Y-123869321D01*
X127383333Y-123909797D01*
X127450000Y-123950273D01*
X127583333Y-123950273D01*
X127650000Y-123909797D01*
X127683333Y-123869321D01*
X127716666Y-123788369D01*
X127716666Y-123585988D01*
X127683333Y-123505035D01*
X127650000Y-123464559D01*
X127583333Y-123424083D01*
X127450000Y-123424083D01*
X127383333Y-123464559D01*
X127350000Y-123505035D01*
X127316666Y-123585988D01*
X122450000Y-124509250D02*
X122383333Y-124468773D01*
X122283333Y-124468773D01*
X122183333Y-124509250D01*
X122116666Y-124590202D01*
X122083333Y-124671154D01*
X122050000Y-124833059D01*
X122050000Y-124954488D01*
X122083333Y-125116392D01*
X122116666Y-125197345D01*
X122183333Y-125278297D01*
X122283333Y-125318773D01*
X122350000Y-125318773D01*
X122450000Y-125278297D01*
X122483333Y-125237821D01*
X122483333Y-124954488D01*
X122350000Y-124954488D01*
X123150000Y-124509250D02*
X123083333Y-124468773D01*
X122983333Y-124468773D01*
X122883333Y-124509250D01*
X122816666Y-124590202D01*
X122783333Y-124671154D01*
X122750000Y-124833059D01*
X122750000Y-124954488D01*
X122783333Y-125116392D01*
X122816666Y-125197345D01*
X122883333Y-125278297D01*
X122983333Y-125318773D01*
X123050000Y-125318773D01*
X123150000Y-125278297D01*
X123183333Y-125237821D01*
X123183333Y-124954488D01*
X123050000Y-124954488D01*
X123916666Y-124914011D02*
X123883333Y-124873535D01*
X123816666Y-124833059D01*
X123750000Y-124833059D01*
X123683333Y-124873535D01*
X123650000Y-124914011D01*
X123616666Y-124994964D01*
X123616666Y-125075916D01*
X123650000Y-125156869D01*
X123683333Y-125197345D01*
X123750000Y-125237821D01*
X123816666Y-125237821D01*
X123883333Y-125197345D01*
X123916666Y-125156869D01*
X123916666Y-124833059D02*
X123916666Y-125156869D01*
X123950000Y-125197345D01*
X123983333Y-125197345D01*
X124050000Y-125156869D01*
X124083333Y-125075916D01*
X124083333Y-124873535D01*
X124016666Y-124752107D01*
X123916666Y-124671154D01*
X123783333Y-124630678D01*
X123650000Y-124671154D01*
X123550000Y-124752107D01*
X123483333Y-124873535D01*
X123450000Y-125035440D01*
X123483333Y-125197345D01*
X123550000Y-125318773D01*
X123650000Y-125399726D01*
X123783333Y-125440202D01*
X123916666Y-125399726D01*
X124016666Y-125318773D01*
X124383333Y-124873535D02*
X124616666Y-124873535D01*
X124716666Y-125318773D02*
X124383333Y-125318773D01*
X124383333Y-124468773D01*
X124716666Y-124468773D01*
X125016666Y-125318773D02*
X125016666Y-124468773D01*
X125183333Y-124468773D01*
X125283333Y-124509250D01*
X125350000Y-124590202D01*
X125383333Y-124671154D01*
X125416666Y-124833059D01*
X125416666Y-124954488D01*
X125383333Y-125116392D01*
X125350000Y-125197345D01*
X125283333Y-125278297D01*
X125183333Y-125318773D01*
X125016666Y-125318773D01*
X125716666Y-125318773D02*
X125716666Y-124468773D01*
X126616666Y-124468773D02*
X126550000Y-124630678D01*
X126883333Y-124549726D02*
X126916666Y-124509250D01*
X126983333Y-124468773D01*
X127150000Y-124468773D01*
X127216666Y-124509250D01*
X127250000Y-124549726D01*
X127283333Y-124630678D01*
X127283333Y-124711630D01*
X127250000Y-124833059D01*
X126850000Y-125318773D01*
X127283333Y-125318773D01*
X127883333Y-124752107D02*
X127883333Y-125318773D01*
X127716666Y-124428297D02*
X127550000Y-125035440D01*
X127983333Y-125035440D01*
%TO.C,C15*%
X104803571Y-82700000D02*
X104844047Y-82733333D01*
X104884523Y-82833333D01*
X104884523Y-82900000D01*
X104844047Y-83000000D01*
X104763095Y-83066666D01*
X104682142Y-83100000D01*
X104520238Y-83133333D01*
X104398809Y-83133333D01*
X104236904Y-83100000D01*
X104155952Y-83066666D01*
X104075000Y-83000000D01*
X104034523Y-82900000D01*
X104034523Y-82833333D01*
X104075000Y-82733333D01*
X104115476Y-82700000D01*
X104884523Y-82033333D02*
X104884523Y-82433333D01*
X104884523Y-82233333D02*
X104034523Y-82233333D01*
X104155952Y-82300000D01*
X104236904Y-82366666D01*
X104277380Y-82433333D01*
X104034523Y-81400000D02*
X104034523Y-81733333D01*
X104439285Y-81766666D01*
X104398809Y-81733333D01*
X104358333Y-81666666D01*
X104358333Y-81500000D01*
X104398809Y-81433333D01*
X104439285Y-81400000D01*
X104520238Y-81366666D01*
X104722619Y-81366666D01*
X104803571Y-81400000D01*
X104844047Y-81433333D01*
X104884523Y-81500000D01*
X104884523Y-81666666D01*
X104844047Y-81733333D01*
X104803571Y-81766666D01*
%TO.C,C24*%
X151803571Y-109950000D02*
X151844047Y-109983333D01*
X151884523Y-110083333D01*
X151884523Y-110150000D01*
X151844047Y-110250000D01*
X151763095Y-110316666D01*
X151682142Y-110350000D01*
X151520238Y-110383333D01*
X151398809Y-110383333D01*
X151236904Y-110350000D01*
X151155952Y-110316666D01*
X151075000Y-110250000D01*
X151034523Y-110150000D01*
X151034523Y-110083333D01*
X151075000Y-109983333D01*
X151115476Y-109950000D01*
X151115476Y-109683333D02*
X151075000Y-109650000D01*
X151034523Y-109583333D01*
X151034523Y-109416666D01*
X151075000Y-109350000D01*
X151115476Y-109316666D01*
X151196428Y-109283333D01*
X151277380Y-109283333D01*
X151398809Y-109316666D01*
X151884523Y-109716666D01*
X151884523Y-109283333D01*
X151317857Y-108683333D02*
X151884523Y-108683333D01*
X150994047Y-108850000D02*
X151601190Y-109016666D01*
X151601190Y-108583333D01*
%TO.C,J1*%
X148266666Y-71534523D02*
X148266666Y-72141666D01*
X148233333Y-72263095D01*
X148166666Y-72344047D01*
X148066666Y-72384523D01*
X148000000Y-72384523D01*
X148966666Y-72384523D02*
X148566666Y-72384523D01*
X148766666Y-72384523D02*
X148766666Y-71534523D01*
X148700000Y-71655952D01*
X148633333Y-71736904D01*
X148566666Y-71777380D01*
%TO.C,C4*%
X149303571Y-70366666D02*
X149344047Y-70400000D01*
X149384523Y-70500000D01*
X149384523Y-70566666D01*
X149344047Y-70666666D01*
X149263095Y-70733333D01*
X149182142Y-70766666D01*
X149020238Y-70800000D01*
X148898809Y-70800000D01*
X148736904Y-70766666D01*
X148655952Y-70733333D01*
X148575000Y-70666666D01*
X148534523Y-70566666D01*
X148534523Y-70500000D01*
X148575000Y-70400000D01*
X148615476Y-70366666D01*
X148817857Y-69766666D02*
X149384523Y-69766666D01*
X148494047Y-69933333D02*
X149101190Y-70100000D01*
X149101190Y-69666666D01*
%TO.C,C9*%
X110803571Y-82366666D02*
X110844047Y-82400000D01*
X110884523Y-82500000D01*
X110884523Y-82566666D01*
X110844047Y-82666666D01*
X110763095Y-82733333D01*
X110682142Y-82766666D01*
X110520238Y-82800000D01*
X110398809Y-82800000D01*
X110236904Y-82766666D01*
X110155952Y-82733333D01*
X110075000Y-82666666D01*
X110034523Y-82566666D01*
X110034523Y-82500000D01*
X110075000Y-82400000D01*
X110115476Y-82366666D01*
X110884523Y-82033333D02*
X110884523Y-81900000D01*
X110844047Y-81833333D01*
X110803571Y-81800000D01*
X110682142Y-81733333D01*
X110520238Y-81700000D01*
X110196428Y-81700000D01*
X110115476Y-81733333D01*
X110075000Y-81766666D01*
X110034523Y-81833333D01*
X110034523Y-81966666D01*
X110075000Y-82033333D01*
X110115476Y-82066666D01*
X110196428Y-82100000D01*
X110398809Y-82100000D01*
X110479761Y-82066666D01*
X110520238Y-82033333D01*
X110560714Y-81966666D01*
X110560714Y-81833333D01*
X110520238Y-81766666D01*
X110479761Y-81733333D01*
X110398809Y-81700000D01*
%TO.C,C17*%
X104803571Y-102700000D02*
X104844047Y-102733333D01*
X104884523Y-102833333D01*
X104884523Y-102900000D01*
X104844047Y-103000000D01*
X104763095Y-103066666D01*
X104682142Y-103100000D01*
X104520238Y-103133333D01*
X104398809Y-103133333D01*
X104236904Y-103100000D01*
X104155952Y-103066666D01*
X104075000Y-103000000D01*
X104034523Y-102900000D01*
X104034523Y-102833333D01*
X104075000Y-102733333D01*
X104115476Y-102700000D01*
X104884523Y-102033333D02*
X104884523Y-102433333D01*
X104884523Y-102233333D02*
X104034523Y-102233333D01*
X104155952Y-102300000D01*
X104236904Y-102366666D01*
X104277380Y-102433333D01*
X104034523Y-101800000D02*
X104034523Y-101333333D01*
X104884523Y-101633333D01*
%TO.C,R20*%
X129384523Y-96950000D02*
X128979761Y-97183333D01*
X129384523Y-97350000D02*
X128534523Y-97350000D01*
X128534523Y-97083333D01*
X128575000Y-97016666D01*
X128615476Y-96983333D01*
X128696428Y-96950000D01*
X128817857Y-96950000D01*
X128898809Y-96983333D01*
X128939285Y-97016666D01*
X128979761Y-97083333D01*
X128979761Y-97350000D01*
X128615476Y-96683333D02*
X128575000Y-96650000D01*
X128534523Y-96583333D01*
X128534523Y-96416666D01*
X128575000Y-96350000D01*
X128615476Y-96316666D01*
X128696428Y-96283333D01*
X128777380Y-96283333D01*
X128898809Y-96316666D01*
X129384523Y-96716666D01*
X129384523Y-96283333D01*
X128534523Y-95850000D02*
X128534523Y-95783333D01*
X128575000Y-95716666D01*
X128615476Y-95683333D01*
X128696428Y-95650000D01*
X128858333Y-95616666D01*
X129060714Y-95616666D01*
X129222619Y-95650000D01*
X129303571Y-95683333D01*
X129344047Y-95716666D01*
X129384523Y-95783333D01*
X129384523Y-95850000D01*
X129344047Y-95916666D01*
X129303571Y-95950000D01*
X129222619Y-95983333D01*
X129060714Y-96016666D01*
X128858333Y-96016666D01*
X128696428Y-95983333D01*
X128615476Y-95950000D01*
X128575000Y-95916666D01*
X128534523Y-95850000D01*
%TO.C,C14*%
X139803571Y-101700000D02*
X139844047Y-101733333D01*
X139884523Y-101833333D01*
X139884523Y-101900000D01*
X139844047Y-102000000D01*
X139763095Y-102066666D01*
X139682142Y-102100000D01*
X139520238Y-102133333D01*
X139398809Y-102133333D01*
X139236904Y-102100000D01*
X139155952Y-102066666D01*
X139075000Y-102000000D01*
X139034523Y-101900000D01*
X139034523Y-101833333D01*
X139075000Y-101733333D01*
X139115476Y-101700000D01*
X139884523Y-101033333D02*
X139884523Y-101433333D01*
X139884523Y-101233333D02*
X139034523Y-101233333D01*
X139155952Y-101300000D01*
X139236904Y-101366666D01*
X139277380Y-101433333D01*
X139317857Y-100433333D02*
X139884523Y-100433333D01*
X138994047Y-100600000D02*
X139601190Y-100766666D01*
X139601190Y-100333333D01*
%TO.C,C26*%
X151803571Y-115950000D02*
X151844047Y-115983333D01*
X151884523Y-116083333D01*
X151884523Y-116150000D01*
X151844047Y-116250000D01*
X151763095Y-116316666D01*
X151682142Y-116350000D01*
X151520238Y-116383333D01*
X151398809Y-116383333D01*
X151236904Y-116350000D01*
X151155952Y-116316666D01*
X151075000Y-116250000D01*
X151034523Y-116150000D01*
X151034523Y-116083333D01*
X151075000Y-115983333D01*
X151115476Y-115950000D01*
X151115476Y-115683333D02*
X151075000Y-115650000D01*
X151034523Y-115583333D01*
X151034523Y-115416666D01*
X151075000Y-115350000D01*
X151115476Y-115316666D01*
X151196428Y-115283333D01*
X151277380Y-115283333D01*
X151398809Y-115316666D01*
X151884523Y-115716666D01*
X151884523Y-115283333D01*
X151034523Y-114683333D02*
X151034523Y-114816666D01*
X151075000Y-114883333D01*
X151115476Y-114916666D01*
X151236904Y-114983333D01*
X151398809Y-115016666D01*
X151722619Y-115016666D01*
X151803571Y-114983333D01*
X151844047Y-114950000D01*
X151884523Y-114883333D01*
X151884523Y-114750000D01*
X151844047Y-114683333D01*
X151803571Y-114650000D01*
X151722619Y-114616666D01*
X151520238Y-114616666D01*
X151439285Y-114650000D01*
X151398809Y-114683333D01*
X151358333Y-114750000D01*
X151358333Y-114883333D01*
X151398809Y-114950000D01*
X151439285Y-114983333D01*
X151520238Y-115016666D01*
%TO.C,C18*%
X145803571Y-81700000D02*
X145844047Y-81733333D01*
X145884523Y-81833333D01*
X145884523Y-81900000D01*
X145844047Y-82000000D01*
X145763095Y-82066666D01*
X145682142Y-82100000D01*
X145520238Y-82133333D01*
X145398809Y-82133333D01*
X145236904Y-82100000D01*
X145155952Y-82066666D01*
X145075000Y-82000000D01*
X145034523Y-81900000D01*
X145034523Y-81833333D01*
X145075000Y-81733333D01*
X145115476Y-81700000D01*
X145884523Y-81033333D02*
X145884523Y-81433333D01*
X145884523Y-81233333D02*
X145034523Y-81233333D01*
X145155952Y-81300000D01*
X145236904Y-81366666D01*
X145277380Y-81433333D01*
X145398809Y-80633333D02*
X145358333Y-80700000D01*
X145317857Y-80733333D01*
X145236904Y-80766666D01*
X145196428Y-80766666D01*
X145115476Y-80733333D01*
X145075000Y-80700000D01*
X145034523Y-80633333D01*
X145034523Y-80500000D01*
X145075000Y-80433333D01*
X145115476Y-80400000D01*
X145196428Y-80366666D01*
X145236904Y-80366666D01*
X145317857Y-80400000D01*
X145358333Y-80433333D01*
X145398809Y-80500000D01*
X145398809Y-80633333D01*
X145439285Y-80700000D01*
X145479761Y-80733333D01*
X145560714Y-80766666D01*
X145722619Y-80766666D01*
X145803571Y-80733333D01*
X145844047Y-80700000D01*
X145884523Y-80633333D01*
X145884523Y-80500000D01*
X145844047Y-80433333D01*
X145803571Y-80400000D01*
X145722619Y-80366666D01*
X145560714Y-80366666D01*
X145479761Y-80400000D01*
X145439285Y-80433333D01*
X145398809Y-80500000D01*
%TO.C,C22*%
X94303571Y-112950000D02*
X94344047Y-112983333D01*
X94384523Y-113083333D01*
X94384523Y-113150000D01*
X94344047Y-113250000D01*
X94263095Y-113316666D01*
X94182142Y-113350000D01*
X94020238Y-113383333D01*
X93898809Y-113383333D01*
X93736904Y-113350000D01*
X93655952Y-113316666D01*
X93575000Y-113250000D01*
X93534523Y-113150000D01*
X93534523Y-113083333D01*
X93575000Y-112983333D01*
X93615476Y-112950000D01*
X93615476Y-112683333D02*
X93575000Y-112650000D01*
X93534523Y-112583333D01*
X93534523Y-112416666D01*
X93575000Y-112350000D01*
X93615476Y-112316666D01*
X93696428Y-112283333D01*
X93777380Y-112283333D01*
X93898809Y-112316666D01*
X94384523Y-112716666D01*
X94384523Y-112283333D01*
X93615476Y-112016666D02*
X93575000Y-111983333D01*
X93534523Y-111916666D01*
X93534523Y-111750000D01*
X93575000Y-111683333D01*
X93615476Y-111650000D01*
X93696428Y-111616666D01*
X93777380Y-111616666D01*
X93898809Y-111650000D01*
X94384523Y-112050000D01*
X94384523Y-111616666D01*
%TO.C,C13*%
X139803571Y-91700000D02*
X139844047Y-91733333D01*
X139884523Y-91833333D01*
X139884523Y-91900000D01*
X139844047Y-92000000D01*
X139763095Y-92066666D01*
X139682142Y-92100000D01*
X139520238Y-92133333D01*
X139398809Y-92133333D01*
X139236904Y-92100000D01*
X139155952Y-92066666D01*
X139075000Y-92000000D01*
X139034523Y-91900000D01*
X139034523Y-91833333D01*
X139075000Y-91733333D01*
X139115476Y-91700000D01*
X139884523Y-91033333D02*
X139884523Y-91433333D01*
X139884523Y-91233333D02*
X139034523Y-91233333D01*
X139155952Y-91300000D01*
X139236904Y-91366666D01*
X139277380Y-91433333D01*
X139034523Y-90800000D02*
X139034523Y-90366666D01*
X139358333Y-90600000D01*
X139358333Y-90500000D01*
X139398809Y-90433333D01*
X139439285Y-90400000D01*
X139520238Y-90366666D01*
X139722619Y-90366666D01*
X139803571Y-90400000D01*
X139844047Y-90433333D01*
X139884523Y-90500000D01*
X139884523Y-90700000D01*
X139844047Y-90766666D01*
X139803571Y-90800000D01*
%TO.C,SW3*%
X141566666Y-85094047D02*
X141666666Y-85134523D01*
X141833333Y-85134523D01*
X141900000Y-85094047D01*
X141933333Y-85053571D01*
X141966666Y-84972619D01*
X141966666Y-84891666D01*
X141933333Y-84810714D01*
X141900000Y-84770238D01*
X141833333Y-84729761D01*
X141700000Y-84689285D01*
X141633333Y-84648809D01*
X141600000Y-84608333D01*
X141566666Y-84527380D01*
X141566666Y-84446428D01*
X141600000Y-84365476D01*
X141633333Y-84325000D01*
X141700000Y-84284523D01*
X141866666Y-84284523D01*
X141966666Y-84325000D01*
X142200000Y-84284523D02*
X142366666Y-85134523D01*
X142500000Y-84527380D01*
X142633333Y-85134523D01*
X142800000Y-84284523D01*
X143000000Y-84284523D02*
X143433333Y-84284523D01*
X143200000Y-84608333D01*
X143300000Y-84608333D01*
X143366666Y-84648809D01*
X143400000Y-84689285D01*
X143433333Y-84770238D01*
X143433333Y-84972619D01*
X143400000Y-85053571D01*
X143366666Y-85094047D01*
X143300000Y-85134523D01*
X143100000Y-85134523D01*
X143033333Y-85094047D01*
X143000000Y-85053571D01*
X144800000Y-84284523D02*
X144800000Y-84972619D01*
X144833333Y-85053571D01*
X144866666Y-85094047D01*
X144933333Y-85134523D01*
X145066666Y-85134523D01*
X145133333Y-85094047D01*
X145166666Y-85053571D01*
X145200000Y-84972619D01*
X145200000Y-84284523D01*
X145500000Y-85094047D02*
X145600000Y-85134523D01*
X145766666Y-85134523D01*
X145833333Y-85094047D01*
X145866666Y-85053571D01*
X145900000Y-84972619D01*
X145900000Y-84891666D01*
X145866666Y-84810714D01*
X145833333Y-84770238D01*
X145766666Y-84729761D01*
X145633333Y-84689285D01*
X145566666Y-84648809D01*
X145533333Y-84608333D01*
X145500000Y-84527380D01*
X145500000Y-84446428D01*
X145533333Y-84365476D01*
X145566666Y-84325000D01*
X145633333Y-84284523D01*
X145800000Y-84284523D01*
X145900000Y-84325000D01*
X146200000Y-84689285D02*
X146433333Y-84689285D01*
X146533333Y-85134523D02*
X146200000Y-85134523D01*
X146200000Y-84284523D01*
X146533333Y-84284523D01*
X147233333Y-85134523D02*
X147000000Y-84729761D01*
X146833333Y-85134523D02*
X146833333Y-84284523D01*
X147100000Y-84284523D01*
X147166666Y-84325000D01*
X147200000Y-84365476D01*
X147233333Y-84446428D01*
X147233333Y-84567857D01*
X147200000Y-84648809D01*
X147166666Y-84689285D01*
X147100000Y-84729761D01*
X146833333Y-84729761D01*
%TO.C,D4*%
X121384523Y-97016666D02*
X120534523Y-97016666D01*
X120534523Y-96850000D01*
X120575000Y-96750000D01*
X120655952Y-96683333D01*
X120736904Y-96650000D01*
X120898809Y-96616666D01*
X121020238Y-96616666D01*
X121182142Y-96650000D01*
X121263095Y-96683333D01*
X121344047Y-96750000D01*
X121384523Y-96850000D01*
X121384523Y-97016666D01*
X120817857Y-96016666D02*
X121384523Y-96016666D01*
X120494047Y-96183333D02*
X121101190Y-96350000D01*
X121101190Y-95916666D01*
%TO.C,U6*%
X141966666Y-101534523D02*
X141966666Y-102222619D01*
X142000000Y-102303571D01*
X142033333Y-102344047D01*
X142100000Y-102384523D01*
X142233333Y-102384523D01*
X142300000Y-102344047D01*
X142333333Y-102303571D01*
X142366666Y-102222619D01*
X142366666Y-101534523D01*
X143000000Y-101534523D02*
X142866666Y-101534523D01*
X142800000Y-101575000D01*
X142766666Y-101615476D01*
X142700000Y-101736904D01*
X142666666Y-101898809D01*
X142666666Y-102222619D01*
X142700000Y-102303571D01*
X142733333Y-102344047D01*
X142800000Y-102384523D01*
X142933333Y-102384523D01*
X143000000Y-102344047D01*
X143033333Y-102303571D01*
X143066666Y-102222619D01*
X143066666Y-102020238D01*
X143033333Y-101939285D01*
X143000000Y-101898809D01*
X142933333Y-101858333D01*
X142800000Y-101858333D01*
X142733333Y-101898809D01*
X142700000Y-101939285D01*
X142666666Y-102020238D01*
%TO.C,M2*%
X147033333Y-106584523D02*
X147033333Y-105734523D01*
X147266666Y-106341666D01*
X147500000Y-105734523D01*
X147500000Y-106584523D01*
X147800000Y-105815476D02*
X147833333Y-105775000D01*
X147900000Y-105734523D01*
X148066666Y-105734523D01*
X148133333Y-105775000D01*
X148166666Y-105815476D01*
X148200000Y-105896428D01*
X148200000Y-105977380D01*
X148166666Y-106098809D01*
X147766666Y-106584523D01*
X148200000Y-106584523D01*
X143749666Y-110042714D02*
X144283000Y-110042714D01*
X144016333Y-110366523D02*
X144016333Y-109718904D01*
X144549666Y-109516523D02*
X144983000Y-109516523D01*
X144749666Y-109840333D01*
X144849666Y-109840333D01*
X144916333Y-109880809D01*
X144949666Y-109921285D01*
X144983000Y-110002238D01*
X144983000Y-110204619D01*
X144949666Y-110285571D01*
X144916333Y-110326047D01*
X144849666Y-110366523D01*
X144649666Y-110366523D01*
X144583000Y-110326047D01*
X144549666Y-110285571D01*
X145183000Y-109516523D02*
X145416333Y-110366523D01*
X145649666Y-109516523D01*
X145816333Y-109516523D02*
X146249666Y-109516523D01*
X146016333Y-109840333D01*
X146116333Y-109840333D01*
X146183000Y-109880809D01*
X146216333Y-109921285D01*
X146249666Y-110002238D01*
X146249666Y-110204619D01*
X146216333Y-110285571D01*
X146183000Y-110326047D01*
X146116333Y-110366523D01*
X145916333Y-110366523D01*
X145849666Y-110326047D01*
X145816333Y-110285571D01*
X144224333Y-112866047D02*
X144324333Y-112906523D01*
X144491000Y-112906523D01*
X144557666Y-112866047D01*
X144591000Y-112825571D01*
X144624333Y-112744619D01*
X144624333Y-112663666D01*
X144591000Y-112582714D01*
X144557666Y-112542238D01*
X144491000Y-112501761D01*
X144357666Y-112461285D01*
X144291000Y-112420809D01*
X144257666Y-112380333D01*
X144224333Y-112299380D01*
X144224333Y-112218428D01*
X144257666Y-112137476D01*
X144291000Y-112097000D01*
X144357666Y-112056523D01*
X144524333Y-112056523D01*
X144624333Y-112097000D01*
X144857666Y-112056523D02*
X145024333Y-112906523D01*
X145157666Y-112299380D01*
X145291000Y-112906523D01*
X145457666Y-112056523D01*
X145724333Y-112906523D02*
X145724333Y-112056523D01*
X145891000Y-112056523D01*
X145991000Y-112097000D01*
X146057666Y-112177952D01*
X146091000Y-112258904D01*
X146124333Y-112420809D01*
X146124333Y-112542238D01*
X146091000Y-112704142D01*
X146057666Y-112785095D01*
X145991000Y-112866047D01*
X145891000Y-112906523D01*
X145724333Y-112906523D01*
X144224333Y-115406047D02*
X144324333Y-115446523D01*
X144491000Y-115446523D01*
X144557666Y-115406047D01*
X144591000Y-115365571D01*
X144624333Y-115284619D01*
X144624333Y-115203666D01*
X144591000Y-115122714D01*
X144557666Y-115082238D01*
X144491000Y-115041761D01*
X144357666Y-115001285D01*
X144291000Y-114960809D01*
X144257666Y-114920333D01*
X144224333Y-114839380D01*
X144224333Y-114758428D01*
X144257666Y-114677476D01*
X144291000Y-114637000D01*
X144357666Y-114596523D01*
X144524333Y-114596523D01*
X144624333Y-114637000D01*
X144857666Y-114596523D02*
X145024333Y-115446523D01*
X145157666Y-114839380D01*
X145291000Y-115446523D01*
X145457666Y-114596523D01*
X146124333Y-115365571D02*
X146091000Y-115406047D01*
X145991000Y-115446523D01*
X145924333Y-115446523D01*
X145824333Y-115406047D01*
X145757666Y-115325095D01*
X145724333Y-115244142D01*
X145691000Y-115082238D01*
X145691000Y-114960809D01*
X145724333Y-114798904D01*
X145757666Y-114717952D01*
X145824333Y-114637000D01*
X145924333Y-114596523D01*
X145991000Y-114596523D01*
X146091000Y-114637000D01*
X146124333Y-114677476D01*
X144624333Y-117177000D02*
X144557666Y-117136523D01*
X144457666Y-117136523D01*
X144357666Y-117177000D01*
X144291000Y-117257952D01*
X144257666Y-117338904D01*
X144224333Y-117500809D01*
X144224333Y-117622238D01*
X144257666Y-117784142D01*
X144291000Y-117865095D01*
X144357666Y-117946047D01*
X144457666Y-117986523D01*
X144524333Y-117986523D01*
X144624333Y-117946047D01*
X144657666Y-117905571D01*
X144657666Y-117622238D01*
X144524333Y-117622238D01*
X144957666Y-117986523D02*
X144957666Y-117136523D01*
X145357666Y-117986523D01*
X145357666Y-117136523D01*
X145691000Y-117986523D02*
X145691000Y-117136523D01*
X145857666Y-117136523D01*
X145957666Y-117177000D01*
X146024333Y-117257952D01*
X146057666Y-117338904D01*
X146091000Y-117500809D01*
X146091000Y-117622238D01*
X146057666Y-117784142D01*
X146024333Y-117865095D01*
X145957666Y-117946047D01*
X145857666Y-117986523D01*
X145691000Y-117986523D01*
%TO.C,C2*%
X144633333Y-103553571D02*
X144600000Y-103594047D01*
X144500000Y-103634523D01*
X144433333Y-103634523D01*
X144333333Y-103594047D01*
X144266666Y-103513095D01*
X144233333Y-103432142D01*
X144200000Y-103270238D01*
X144200000Y-103148809D01*
X144233333Y-102986904D01*
X144266666Y-102905952D01*
X144333333Y-102825000D01*
X144433333Y-102784523D01*
X144500000Y-102784523D01*
X144600000Y-102825000D01*
X144633333Y-102865476D01*
X144900000Y-102865476D02*
X144933333Y-102825000D01*
X145000000Y-102784523D01*
X145166666Y-102784523D01*
X145233333Y-102825000D01*
X145266666Y-102865476D01*
X145300000Y-102946428D01*
X145300000Y-103027380D01*
X145266666Y-103148809D01*
X144866666Y-103634523D01*
X145300000Y-103634523D01*
%TO.C,R7*%
X138884523Y-76616666D02*
X138479761Y-76850000D01*
X138884523Y-77016666D02*
X138034523Y-77016666D01*
X138034523Y-76750000D01*
X138075000Y-76683333D01*
X138115476Y-76650000D01*
X138196428Y-76616666D01*
X138317857Y-76616666D01*
X138398809Y-76650000D01*
X138439285Y-76683333D01*
X138479761Y-76750000D01*
X138479761Y-77016666D01*
X138034523Y-76383333D02*
X138034523Y-75916666D01*
X138884523Y-76216666D01*
%TO.C,R4*%
X137134523Y-79366666D02*
X136729761Y-79600000D01*
X137134523Y-79766666D02*
X136284523Y-79766666D01*
X136284523Y-79500000D01*
X136325000Y-79433333D01*
X136365476Y-79400000D01*
X136446428Y-79366666D01*
X136567857Y-79366666D01*
X136648809Y-79400000D01*
X136689285Y-79433333D01*
X136729761Y-79500000D01*
X136729761Y-79766666D01*
X136567857Y-78766666D02*
X137134523Y-78766666D01*
X136244047Y-78933333D02*
X136851190Y-79100000D01*
X136851190Y-78666666D01*
%TO.C,C10*%
X110803571Y-92700000D02*
X110844047Y-92733333D01*
X110884523Y-92833333D01*
X110884523Y-92900000D01*
X110844047Y-93000000D01*
X110763095Y-93066666D01*
X110682142Y-93100000D01*
X110520238Y-93133333D01*
X110398809Y-93133333D01*
X110236904Y-93100000D01*
X110155952Y-93066666D01*
X110075000Y-93000000D01*
X110034523Y-92900000D01*
X110034523Y-92833333D01*
X110075000Y-92733333D01*
X110115476Y-92700000D01*
X110884523Y-92033333D02*
X110884523Y-92433333D01*
X110884523Y-92233333D02*
X110034523Y-92233333D01*
X110155952Y-92300000D01*
X110236904Y-92366666D01*
X110277380Y-92433333D01*
X110034523Y-91600000D02*
X110034523Y-91533333D01*
X110075000Y-91466666D01*
X110115476Y-91433333D01*
X110196428Y-91400000D01*
X110358333Y-91366666D01*
X110560714Y-91366666D01*
X110722619Y-91400000D01*
X110803571Y-91433333D01*
X110844047Y-91466666D01*
X110884523Y-91533333D01*
X110884523Y-91600000D01*
X110844047Y-91666666D01*
X110803571Y-91700000D01*
X110722619Y-91733333D01*
X110560714Y-91766666D01*
X110358333Y-91766666D01*
X110196428Y-91733333D01*
X110115476Y-91700000D01*
X110075000Y-91666666D01*
X110034523Y-91600000D01*
%TO.C,U5*%
X141966666Y-91534523D02*
X141966666Y-92222619D01*
X142000000Y-92303571D01*
X142033333Y-92344047D01*
X142100000Y-92384523D01*
X142233333Y-92384523D01*
X142300000Y-92344047D01*
X142333333Y-92303571D01*
X142366666Y-92222619D01*
X142366666Y-91534523D01*
X143033333Y-91534523D02*
X142700000Y-91534523D01*
X142666666Y-91939285D01*
X142700000Y-91898809D01*
X142766666Y-91858333D01*
X142933333Y-91858333D01*
X143000000Y-91898809D01*
X143033333Y-91939285D01*
X143066666Y-92020238D01*
X143066666Y-92222619D01*
X143033333Y-92303571D01*
X143000000Y-92344047D01*
X142933333Y-92384523D01*
X142766666Y-92384523D01*
X142700000Y-92344047D01*
X142666666Y-92303571D01*
%TO.C,J6*%
X92016666Y-102534523D02*
X92016666Y-103141666D01*
X91983333Y-103263095D01*
X91916666Y-103344047D01*
X91816666Y-103384523D01*
X91750000Y-103384523D01*
X92650000Y-102534523D02*
X92516666Y-102534523D01*
X92450000Y-102575000D01*
X92416666Y-102615476D01*
X92350000Y-102736904D01*
X92316666Y-102898809D01*
X92316666Y-103222619D01*
X92350000Y-103303571D01*
X92383333Y-103344047D01*
X92450000Y-103384523D01*
X92583333Y-103384523D01*
X92650000Y-103344047D01*
X92683333Y-103303571D01*
X92716666Y-103222619D01*
X92716666Y-103020238D01*
X92683333Y-102939285D01*
X92650000Y-102898809D01*
X92583333Y-102858333D01*
X92450000Y-102858333D01*
X92383333Y-102898809D01*
X92350000Y-102939285D01*
X92316666Y-103020238D01*
X101534523Y-101450000D02*
X102222619Y-101450000D01*
X102303571Y-101416666D01*
X102344047Y-101383333D01*
X102384523Y-101316666D01*
X102384523Y-101183333D01*
X102344047Y-101116666D01*
X102303571Y-101083333D01*
X102222619Y-101050000D01*
X101534523Y-101050000D01*
X102141666Y-100750000D02*
X102141666Y-100416666D01*
X102384523Y-100816666D02*
X101534523Y-100583333D01*
X102384523Y-100350000D01*
X102384523Y-99716666D02*
X101979761Y-99950000D01*
X102384523Y-100116666D02*
X101534523Y-100116666D01*
X101534523Y-99850000D01*
X101575000Y-99783333D01*
X101615476Y-99750000D01*
X101696428Y-99716666D01*
X101817857Y-99716666D01*
X101898809Y-99750000D01*
X101939285Y-99783333D01*
X101979761Y-99850000D01*
X101979761Y-100116666D01*
X101534523Y-99516666D02*
X101534523Y-99116666D01*
X102384523Y-99316666D02*
X101534523Y-99316666D01*
X101534523Y-98550000D02*
X101534523Y-98883333D01*
X101939285Y-98916666D01*
X101898809Y-98883333D01*
X101858333Y-98816666D01*
X101858333Y-98650000D01*
X101898809Y-98583333D01*
X101939285Y-98550000D01*
X102020238Y-98516666D01*
X102222619Y-98516666D01*
X102303571Y-98550000D01*
X102344047Y-98583333D01*
X102384523Y-98650000D01*
X102384523Y-98816666D01*
X102344047Y-98883333D01*
X102303571Y-98916666D01*
%TO.C,C25*%
X151803571Y-112950000D02*
X151844047Y-112983333D01*
X151884523Y-113083333D01*
X151884523Y-113150000D01*
X151844047Y-113250000D01*
X151763095Y-113316666D01*
X151682142Y-113350000D01*
X151520238Y-113383333D01*
X151398809Y-113383333D01*
X151236904Y-113350000D01*
X151155952Y-113316666D01*
X151075000Y-113250000D01*
X151034523Y-113150000D01*
X151034523Y-113083333D01*
X151075000Y-112983333D01*
X151115476Y-112950000D01*
X151115476Y-112683333D02*
X151075000Y-112650000D01*
X151034523Y-112583333D01*
X151034523Y-112416666D01*
X151075000Y-112350000D01*
X151115476Y-112316666D01*
X151196428Y-112283333D01*
X151277380Y-112283333D01*
X151398809Y-112316666D01*
X151884523Y-112716666D01*
X151884523Y-112283333D01*
X151034523Y-111650000D02*
X151034523Y-111983333D01*
X151439285Y-112016666D01*
X151398809Y-111983333D01*
X151358333Y-111916666D01*
X151358333Y-111750000D01*
X151398809Y-111683333D01*
X151439285Y-111650000D01*
X151520238Y-111616666D01*
X151722619Y-111616666D01*
X151803571Y-111650000D01*
X151844047Y-111683333D01*
X151884523Y-111750000D01*
X151884523Y-111916666D01*
X151844047Y-111983333D01*
X151803571Y-112016666D01*
%TO.C,R2*%
X98884523Y-74866666D02*
X98479761Y-75100000D01*
X98884523Y-75266666D02*
X98034523Y-75266666D01*
X98034523Y-75000000D01*
X98075000Y-74933333D01*
X98115476Y-74900000D01*
X98196428Y-74866666D01*
X98317857Y-74866666D01*
X98398809Y-74900000D01*
X98439285Y-74933333D01*
X98479761Y-75000000D01*
X98479761Y-75266666D01*
X98115476Y-74600000D02*
X98075000Y-74566666D01*
X98034523Y-74500000D01*
X98034523Y-74333333D01*
X98075000Y-74266666D01*
X98115476Y-74233333D01*
X98196428Y-74200000D01*
X98277380Y-74200000D01*
X98398809Y-74233333D01*
X98884523Y-74633333D01*
X98884523Y-74200000D01*
%TO.C,R14*%
X119384523Y-96950000D02*
X118979761Y-97183333D01*
X119384523Y-97350000D02*
X118534523Y-97350000D01*
X118534523Y-97083333D01*
X118575000Y-97016666D01*
X118615476Y-96983333D01*
X118696428Y-96950000D01*
X118817857Y-96950000D01*
X118898809Y-96983333D01*
X118939285Y-97016666D01*
X118979761Y-97083333D01*
X118979761Y-97350000D01*
X119384523Y-96283333D02*
X119384523Y-96683333D01*
X119384523Y-96483333D02*
X118534523Y-96483333D01*
X118655952Y-96550000D01*
X118736904Y-96616666D01*
X118777380Y-96683333D01*
X118817857Y-95683333D02*
X119384523Y-95683333D01*
X118494047Y-95850000D02*
X119101190Y-96016666D01*
X119101190Y-95583333D01*
%TO.C,FB2*%
X127439285Y-96083333D02*
X127439285Y-96316666D01*
X127884523Y-96316666D02*
X127034523Y-96316666D01*
X127034523Y-95983333D01*
X127439285Y-95483333D02*
X127479761Y-95383333D01*
X127520238Y-95350000D01*
X127601190Y-95316666D01*
X127722619Y-95316666D01*
X127803571Y-95350000D01*
X127844047Y-95383333D01*
X127884523Y-95450000D01*
X127884523Y-95716666D01*
X127034523Y-95716666D01*
X127034523Y-95483333D01*
X127075000Y-95416666D01*
X127115476Y-95383333D01*
X127196428Y-95350000D01*
X127277380Y-95350000D01*
X127358333Y-95383333D01*
X127398809Y-95416666D01*
X127439285Y-95483333D01*
X127439285Y-95716666D01*
X127115476Y-95050000D02*
X127075000Y-95016666D01*
X127034523Y-94950000D01*
X127034523Y-94783333D01*
X127075000Y-94716666D01*
X127115476Y-94683333D01*
X127196428Y-94650000D01*
X127277380Y-94650000D01*
X127398809Y-94683333D01*
X127884523Y-95083333D01*
X127884523Y-94650000D01*
%TO.C,M1*%
X113884523Y-67536666D02*
X113034523Y-67536666D01*
X113641666Y-67303333D01*
X113034523Y-67070000D01*
X113884523Y-67070000D01*
X113884523Y-66370000D02*
X113884523Y-66770000D01*
X113884523Y-66570000D02*
X113034523Y-66570000D01*
X113155952Y-66636666D01*
X113236904Y-66703333D01*
X113277380Y-66770000D01*
%TO.C,U3*%
X106966666Y-101534523D02*
X106966666Y-102222619D01*
X107000000Y-102303571D01*
X107033333Y-102344047D01*
X107100000Y-102384523D01*
X107233333Y-102384523D01*
X107300000Y-102344047D01*
X107333333Y-102303571D01*
X107366666Y-102222619D01*
X107366666Y-101534523D01*
X107633333Y-101534523D02*
X108066666Y-101534523D01*
X107833333Y-101858333D01*
X107933333Y-101858333D01*
X108000000Y-101898809D01*
X108033333Y-101939285D01*
X108066666Y-102020238D01*
X108066666Y-102222619D01*
X108033333Y-102303571D01*
X108000000Y-102344047D01*
X107933333Y-102384523D01*
X107733333Y-102384523D01*
X107666666Y-102344047D01*
X107633333Y-102303571D01*
%TO.C,R11*%
X97384523Y-112950000D02*
X96979761Y-113183333D01*
X97384523Y-113350000D02*
X96534523Y-113350000D01*
X96534523Y-113083333D01*
X96575000Y-113016666D01*
X96615476Y-112983333D01*
X96696428Y-112950000D01*
X96817857Y-112950000D01*
X96898809Y-112983333D01*
X96939285Y-113016666D01*
X96979761Y-113083333D01*
X96979761Y-113350000D01*
X97384523Y-112283333D02*
X97384523Y-112683333D01*
X97384523Y-112483333D02*
X96534523Y-112483333D01*
X96655952Y-112550000D01*
X96736904Y-112616666D01*
X96777380Y-112683333D01*
X97384523Y-111616666D02*
X97384523Y-112016666D01*
X97384523Y-111816666D02*
X96534523Y-111816666D01*
X96655952Y-111883333D01*
X96736904Y-111950000D01*
X96777380Y-112016666D01*
%TO.C,R12*%
X98884523Y-109950000D02*
X98479761Y-110183333D01*
X98884523Y-110350000D02*
X98034523Y-110350000D01*
X98034523Y-110083333D01*
X98075000Y-110016666D01*
X98115476Y-109983333D01*
X98196428Y-109950000D01*
X98317857Y-109950000D01*
X98398809Y-109983333D01*
X98439285Y-110016666D01*
X98479761Y-110083333D01*
X98479761Y-110350000D01*
X98884523Y-109283333D02*
X98884523Y-109683333D01*
X98884523Y-109483333D02*
X98034523Y-109483333D01*
X98155952Y-109550000D01*
X98236904Y-109616666D01*
X98277380Y-109683333D01*
X98115476Y-109016666D02*
X98075000Y-108983333D01*
X98034523Y-108916666D01*
X98034523Y-108750000D01*
X98075000Y-108683333D01*
X98115476Y-108650000D01*
X98196428Y-108616666D01*
X98277380Y-108616666D01*
X98398809Y-108650000D01*
X98884523Y-109050000D01*
X98884523Y-108616666D01*
%TO.C,R9*%
X152134523Y-74866666D02*
X151729761Y-75100000D01*
X152134523Y-75266666D02*
X151284523Y-75266666D01*
X151284523Y-75000000D01*
X151325000Y-74933333D01*
X151365476Y-74900000D01*
X151446428Y-74866666D01*
X151567857Y-74866666D01*
X151648809Y-74900000D01*
X151689285Y-74933333D01*
X151729761Y-75000000D01*
X151729761Y-75266666D01*
X152134523Y-74533333D02*
X152134523Y-74400000D01*
X152094047Y-74333333D01*
X152053571Y-74300000D01*
X151932142Y-74233333D01*
X151770238Y-74200000D01*
X151446428Y-74200000D01*
X151365476Y-74233333D01*
X151325000Y-74266666D01*
X151284523Y-74333333D01*
X151284523Y-74466666D01*
X151325000Y-74533333D01*
X151365476Y-74566666D01*
X151446428Y-74600000D01*
X151648809Y-74600000D01*
X151729761Y-74566666D01*
X151770238Y-74533333D01*
X151810714Y-74466666D01*
X151810714Y-74333333D01*
X151770238Y-74266666D01*
X151729761Y-74233333D01*
X151648809Y-74200000D01*
%TO.C,J5*%
X92016666Y-92534523D02*
X92016666Y-93141666D01*
X91983333Y-93263095D01*
X91916666Y-93344047D01*
X91816666Y-93384523D01*
X91750000Y-93384523D01*
X92683333Y-92534523D02*
X92350000Y-92534523D01*
X92316666Y-92939285D01*
X92350000Y-92898809D01*
X92416666Y-92858333D01*
X92583333Y-92858333D01*
X92650000Y-92898809D01*
X92683333Y-92939285D01*
X92716666Y-93020238D01*
X92716666Y-93222619D01*
X92683333Y-93303571D01*
X92650000Y-93344047D01*
X92583333Y-93384523D01*
X92416666Y-93384523D01*
X92350000Y-93344047D01*
X92316666Y-93303571D01*
X101534523Y-91450000D02*
X102222619Y-91450000D01*
X102303571Y-91416666D01*
X102344047Y-91383333D01*
X102384523Y-91316666D01*
X102384523Y-91183333D01*
X102344047Y-91116666D01*
X102303571Y-91083333D01*
X102222619Y-91050000D01*
X101534523Y-91050000D01*
X102141666Y-90750000D02*
X102141666Y-90416666D01*
X102384523Y-90816666D02*
X101534523Y-90583333D01*
X102384523Y-90350000D01*
X102384523Y-89716666D02*
X101979761Y-89950000D01*
X102384523Y-90116666D02*
X101534523Y-90116666D01*
X101534523Y-89850000D01*
X101575000Y-89783333D01*
X101615476Y-89750000D01*
X101696428Y-89716666D01*
X101817857Y-89716666D01*
X101898809Y-89750000D01*
X101939285Y-89783333D01*
X101979761Y-89850000D01*
X101979761Y-90116666D01*
X101534523Y-89516666D02*
X101534523Y-89116666D01*
X102384523Y-89316666D02*
X101534523Y-89316666D01*
X101817857Y-88583333D02*
X102384523Y-88583333D01*
X101494047Y-88750000D02*
X102101190Y-88916666D01*
X102101190Y-88483333D01*
%TO.C,R8*%
X139924523Y-76616666D02*
X139519761Y-76850000D01*
X139924523Y-77016666D02*
X139074523Y-77016666D01*
X139074523Y-76750000D01*
X139115000Y-76683333D01*
X139155476Y-76650000D01*
X139236428Y-76616666D01*
X139357857Y-76616666D01*
X139438809Y-76650000D01*
X139479285Y-76683333D01*
X139519761Y-76750000D01*
X139519761Y-77016666D01*
X139438809Y-76216666D02*
X139398333Y-76283333D01*
X139357857Y-76316666D01*
X139276904Y-76350000D01*
X139236428Y-76350000D01*
X139155476Y-76316666D01*
X139115000Y-76283333D01*
X139074523Y-76216666D01*
X139074523Y-76083333D01*
X139115000Y-76016666D01*
X139155476Y-75983333D01*
X139236428Y-75950000D01*
X139276904Y-75950000D01*
X139357857Y-75983333D01*
X139398333Y-76016666D01*
X139438809Y-76083333D01*
X139438809Y-76216666D01*
X139479285Y-76283333D01*
X139519761Y-76316666D01*
X139600714Y-76350000D01*
X139762619Y-76350000D01*
X139843571Y-76316666D01*
X139884047Y-76283333D01*
X139924523Y-76216666D01*
X139924523Y-76083333D01*
X139884047Y-76016666D01*
X139843571Y-75983333D01*
X139762619Y-75950000D01*
X139600714Y-75950000D01*
X139519761Y-75983333D01*
X139479285Y-76016666D01*
X139438809Y-76083333D01*
%TO.C,FB4*%
X95439285Y-113083333D02*
X95439285Y-113316666D01*
X95884523Y-113316666D02*
X95034523Y-113316666D01*
X95034523Y-112983333D01*
X95439285Y-112483333D02*
X95479761Y-112383333D01*
X95520238Y-112350000D01*
X95601190Y-112316666D01*
X95722619Y-112316666D01*
X95803571Y-112350000D01*
X95844047Y-112383333D01*
X95884523Y-112450000D01*
X95884523Y-112716666D01*
X95034523Y-112716666D01*
X95034523Y-112483333D01*
X95075000Y-112416666D01*
X95115476Y-112383333D01*
X95196428Y-112350000D01*
X95277380Y-112350000D01*
X95358333Y-112383333D01*
X95398809Y-112416666D01*
X95439285Y-112483333D01*
X95439285Y-112716666D01*
X95317857Y-111716666D02*
X95884523Y-111716666D01*
X94994047Y-111883333D02*
X95601190Y-112050000D01*
X95601190Y-111616666D01*
%TO.C,D3*%
X113816666Y-101315476D02*
X113816666Y-102165476D01*
X113650000Y-102165476D01*
X113550000Y-102125000D01*
X113483333Y-102044047D01*
X113450000Y-101963095D01*
X113416666Y-101801190D01*
X113416666Y-101679761D01*
X113450000Y-101517857D01*
X113483333Y-101436904D01*
X113550000Y-101355952D01*
X113650000Y-101315476D01*
X113816666Y-101315476D01*
X113183333Y-102165476D02*
X112750000Y-102165476D01*
X112983333Y-101841666D01*
X112883333Y-101841666D01*
X112816666Y-101801190D01*
X112783333Y-101760714D01*
X112750000Y-101679761D01*
X112750000Y-101477380D01*
X112783333Y-101396428D01*
X112816666Y-101355952D01*
X112883333Y-101315476D01*
X113083333Y-101315476D01*
X113150000Y-101355952D01*
X113183333Y-101396428D01*
%TO.C,FB3*%
X95443285Y-109967333D02*
X95443285Y-110200666D01*
X95888523Y-110200666D02*
X95038523Y-110200666D01*
X95038523Y-109867333D01*
X95443285Y-109367333D02*
X95483761Y-109267333D01*
X95524238Y-109234000D01*
X95605190Y-109200666D01*
X95726619Y-109200666D01*
X95807571Y-109234000D01*
X95848047Y-109267333D01*
X95888523Y-109334000D01*
X95888523Y-109600666D01*
X95038523Y-109600666D01*
X95038523Y-109367333D01*
X95079000Y-109300666D01*
X95119476Y-109267333D01*
X95200428Y-109234000D01*
X95281380Y-109234000D01*
X95362333Y-109267333D01*
X95402809Y-109300666D01*
X95443285Y-109367333D01*
X95443285Y-109600666D01*
X95038523Y-108967333D02*
X95038523Y-108534000D01*
X95362333Y-108767333D01*
X95362333Y-108667333D01*
X95402809Y-108600666D01*
X95443285Y-108567333D01*
X95524238Y-108534000D01*
X95726619Y-108534000D01*
X95807571Y-108567333D01*
X95848047Y-108600666D01*
X95888523Y-108667333D01*
X95888523Y-108867333D01*
X95848047Y-108934000D01*
X95807571Y-108967333D01*
%TO.C,D2*%
X102983333Y-77384523D02*
X102983333Y-76534523D01*
X103150000Y-76534523D01*
X103250000Y-76575000D01*
X103316666Y-76655952D01*
X103350000Y-76736904D01*
X103383333Y-76898809D01*
X103383333Y-77020238D01*
X103350000Y-77182142D01*
X103316666Y-77263095D01*
X103250000Y-77344047D01*
X103150000Y-77384523D01*
X102983333Y-77384523D01*
X103650000Y-76615476D02*
X103683333Y-76575000D01*
X103750000Y-76534523D01*
X103916666Y-76534523D01*
X103983333Y-76575000D01*
X104016666Y-76615476D01*
X104050000Y-76696428D01*
X104050000Y-76777380D01*
X104016666Y-76898809D01*
X103616666Y-77384523D01*
X104050000Y-77384523D01*
%TO.C,C21*%
X94303571Y-109950000D02*
X94344047Y-109983333D01*
X94384523Y-110083333D01*
X94384523Y-110150000D01*
X94344047Y-110250000D01*
X94263095Y-110316666D01*
X94182142Y-110350000D01*
X94020238Y-110383333D01*
X93898809Y-110383333D01*
X93736904Y-110350000D01*
X93655952Y-110316666D01*
X93575000Y-110250000D01*
X93534523Y-110150000D01*
X93534523Y-110083333D01*
X93575000Y-109983333D01*
X93615476Y-109950000D01*
X93615476Y-109683333D02*
X93575000Y-109650000D01*
X93534523Y-109583333D01*
X93534523Y-109416666D01*
X93575000Y-109350000D01*
X93615476Y-109316666D01*
X93696428Y-109283333D01*
X93777380Y-109283333D01*
X93898809Y-109316666D01*
X94384523Y-109716666D01*
X94384523Y-109283333D01*
X94384523Y-108616666D02*
X94384523Y-109016666D01*
X94384523Y-108816666D02*
X93534523Y-108816666D01*
X93655952Y-108883333D01*
X93736904Y-108950000D01*
X93777380Y-109016666D01*
%TO.C,U4*%
X141966666Y-81534523D02*
X141966666Y-82222619D01*
X142000000Y-82303571D01*
X142033333Y-82344047D01*
X142100000Y-82384523D01*
X142233333Y-82384523D01*
X142300000Y-82344047D01*
X142333333Y-82303571D01*
X142366666Y-82222619D01*
X142366666Y-81534523D01*
X143000000Y-81817857D02*
X143000000Y-82384523D01*
X142833333Y-81494047D02*
X142666666Y-82101190D01*
X143100000Y-82101190D01*
%TO.C,R10*%
X98884523Y-112950000D02*
X98479761Y-113183333D01*
X98884523Y-113350000D02*
X98034523Y-113350000D01*
X98034523Y-113083333D01*
X98075000Y-113016666D01*
X98115476Y-112983333D01*
X98196428Y-112950000D01*
X98317857Y-112950000D01*
X98398809Y-112983333D01*
X98439285Y-113016666D01*
X98479761Y-113083333D01*
X98479761Y-113350000D01*
X98884523Y-112283333D02*
X98884523Y-112683333D01*
X98884523Y-112483333D02*
X98034523Y-112483333D01*
X98155952Y-112550000D01*
X98236904Y-112616666D01*
X98277380Y-112683333D01*
X98034523Y-111850000D02*
X98034523Y-111783333D01*
X98075000Y-111716666D01*
X98115476Y-111683333D01*
X98196428Y-111650000D01*
X98358333Y-111616666D01*
X98560714Y-111616666D01*
X98722619Y-111650000D01*
X98803571Y-111683333D01*
X98844047Y-111716666D01*
X98884523Y-111783333D01*
X98884523Y-111850000D01*
X98844047Y-111916666D01*
X98803571Y-111950000D01*
X98722619Y-111983333D01*
X98560714Y-112016666D01*
X98358333Y-112016666D01*
X98196428Y-111983333D01*
X98115476Y-111950000D01*
X98075000Y-111916666D01*
X98034523Y-111850000D01*
%TO.C,C23*%
X94303571Y-115950000D02*
X94344047Y-115983333D01*
X94384523Y-116083333D01*
X94384523Y-116150000D01*
X94344047Y-116250000D01*
X94263095Y-116316666D01*
X94182142Y-116350000D01*
X94020238Y-116383333D01*
X93898809Y-116383333D01*
X93736904Y-116350000D01*
X93655952Y-116316666D01*
X93575000Y-116250000D01*
X93534523Y-116150000D01*
X93534523Y-116083333D01*
X93575000Y-115983333D01*
X93615476Y-115950000D01*
X93615476Y-115683333D02*
X93575000Y-115650000D01*
X93534523Y-115583333D01*
X93534523Y-115416666D01*
X93575000Y-115350000D01*
X93615476Y-115316666D01*
X93696428Y-115283333D01*
X93777380Y-115283333D01*
X93898809Y-115316666D01*
X94384523Y-115716666D01*
X94384523Y-115283333D01*
X93534523Y-115050000D02*
X93534523Y-114616666D01*
X93858333Y-114850000D01*
X93858333Y-114750000D01*
X93898809Y-114683333D01*
X93939285Y-114650000D01*
X94020238Y-114616666D01*
X94222619Y-114616666D01*
X94303571Y-114650000D01*
X94344047Y-114683333D01*
X94384523Y-114750000D01*
X94384523Y-114950000D01*
X94344047Y-115016666D01*
X94303571Y-115050000D01*
%TO.C,J4*%
X92016666Y-82534523D02*
X92016666Y-83141666D01*
X91983333Y-83263095D01*
X91916666Y-83344047D01*
X91816666Y-83384523D01*
X91750000Y-83384523D01*
X92650000Y-82817857D02*
X92650000Y-83384523D01*
X92483333Y-82494047D02*
X92316666Y-83101190D01*
X92750000Y-83101190D01*
X101534523Y-81450000D02*
X102222619Y-81450000D01*
X102303571Y-81416666D01*
X102344047Y-81383333D01*
X102384523Y-81316666D01*
X102384523Y-81183333D01*
X102344047Y-81116666D01*
X102303571Y-81083333D01*
X102222619Y-81050000D01*
X101534523Y-81050000D01*
X102141666Y-80750000D02*
X102141666Y-80416666D01*
X102384523Y-80816666D02*
X101534523Y-80583333D01*
X102384523Y-80350000D01*
X102384523Y-79716666D02*
X101979761Y-79950000D01*
X102384523Y-80116666D02*
X101534523Y-80116666D01*
X101534523Y-79850000D01*
X101575000Y-79783333D01*
X101615476Y-79750000D01*
X101696428Y-79716666D01*
X101817857Y-79716666D01*
X101898809Y-79750000D01*
X101939285Y-79783333D01*
X101979761Y-79850000D01*
X101979761Y-80116666D01*
X101534523Y-79516666D02*
X101534523Y-79116666D01*
X102384523Y-79316666D02*
X101534523Y-79316666D01*
X101615476Y-78916666D02*
X101575000Y-78883333D01*
X101534523Y-78816666D01*
X101534523Y-78650000D01*
X101575000Y-78583333D01*
X101615476Y-78550000D01*
X101696428Y-78516666D01*
X101777380Y-78516666D01*
X101898809Y-78550000D01*
X102384523Y-78950000D01*
X102384523Y-78516666D01*
%TO.C,J7*%
X149516666Y-82534523D02*
X149516666Y-83141666D01*
X149483333Y-83263095D01*
X149416666Y-83344047D01*
X149316666Y-83384523D01*
X149250000Y-83384523D01*
X149783333Y-82534523D02*
X150250000Y-82534523D01*
X149950000Y-83384523D01*
X148384523Y-80983333D02*
X147534523Y-80983333D01*
X147615476Y-80683333D02*
X147575000Y-80650000D01*
X147534523Y-80583333D01*
X147534523Y-80416666D01*
X147575000Y-80350000D01*
X147615476Y-80316666D01*
X147696428Y-80283333D01*
X147777380Y-80283333D01*
X147898809Y-80316666D01*
X148384523Y-80716666D01*
X148384523Y-80283333D01*
X148303571Y-79583333D02*
X148344047Y-79616666D01*
X148384523Y-79716666D01*
X148384523Y-79783333D01*
X148344047Y-79883333D01*
X148263095Y-79950000D01*
X148182142Y-79983333D01*
X148020238Y-80016666D01*
X147898809Y-80016666D01*
X147736904Y-79983333D01*
X147655952Y-79950000D01*
X147575000Y-79883333D01*
X147534523Y-79783333D01*
X147534523Y-79716666D01*
X147575000Y-79616666D01*
X147615476Y-79583333D01*
X148141666Y-79316666D02*
X148141666Y-78983333D01*
X148384523Y-79383333D02*
X147534523Y-79150000D01*
X148384523Y-78916666D01*
%TO.C,R6*%
X137134523Y-84866666D02*
X136729761Y-85100000D01*
X137134523Y-85266666D02*
X136284523Y-85266666D01*
X136284523Y-85000000D01*
X136325000Y-84933333D01*
X136365476Y-84900000D01*
X136446428Y-84866666D01*
X136567857Y-84866666D01*
X136648809Y-84900000D01*
X136689285Y-84933333D01*
X136729761Y-85000000D01*
X136729761Y-85266666D01*
X136284523Y-84266666D02*
X136284523Y-84400000D01*
X136325000Y-84466666D01*
X136365476Y-84500000D01*
X136486904Y-84566666D01*
X136648809Y-84600000D01*
X136972619Y-84600000D01*
X137053571Y-84566666D01*
X137094047Y-84533333D01*
X137134523Y-84466666D01*
X137134523Y-84333333D01*
X137094047Y-84266666D01*
X137053571Y-84233333D01*
X136972619Y-84200000D01*
X136770238Y-84200000D01*
X136689285Y-84233333D01*
X136648809Y-84266666D01*
X136608333Y-84333333D01*
X136608333Y-84466666D01*
X136648809Y-84533333D01*
X136689285Y-84566666D01*
X136770238Y-84600000D01*
%TO.C,C6*%
X122633333Y-103303571D02*
X122600000Y-103344047D01*
X122500000Y-103384523D01*
X122433333Y-103384523D01*
X122333333Y-103344047D01*
X122266666Y-103263095D01*
X122233333Y-103182142D01*
X122200000Y-103020238D01*
X122200000Y-102898809D01*
X122233333Y-102736904D01*
X122266666Y-102655952D01*
X122333333Y-102575000D01*
X122433333Y-102534523D01*
X122500000Y-102534523D01*
X122600000Y-102575000D01*
X122633333Y-102615476D01*
X123233333Y-102534523D02*
X123100000Y-102534523D01*
X123033333Y-102575000D01*
X123000000Y-102615476D01*
X122933333Y-102736904D01*
X122900000Y-102898809D01*
X122900000Y-103222619D01*
X122933333Y-103303571D01*
X122966666Y-103344047D01*
X123033333Y-103384523D01*
X123166666Y-103384523D01*
X123233333Y-103344047D01*
X123266666Y-103303571D01*
X123300000Y-103222619D01*
X123300000Y-103020238D01*
X123266666Y-102939285D01*
X123233333Y-102898809D01*
X123166666Y-102858333D01*
X123033333Y-102858333D01*
X122966666Y-102898809D01*
X122933333Y-102939285D01*
X122900000Y-103020238D01*
%TO.C,FB6*%
X152939285Y-110083333D02*
X152939285Y-110316666D01*
X153384523Y-110316666D02*
X152534523Y-110316666D01*
X152534523Y-109983333D01*
X152939285Y-109483333D02*
X152979761Y-109383333D01*
X153020238Y-109350000D01*
X153101190Y-109316666D01*
X153222619Y-109316666D01*
X153303571Y-109350000D01*
X153344047Y-109383333D01*
X153384523Y-109450000D01*
X153384523Y-109716666D01*
X152534523Y-109716666D01*
X152534523Y-109483333D01*
X152575000Y-109416666D01*
X152615476Y-109383333D01*
X152696428Y-109350000D01*
X152777380Y-109350000D01*
X152858333Y-109383333D01*
X152898809Y-109416666D01*
X152939285Y-109483333D01*
X152939285Y-109716666D01*
X152534523Y-108716666D02*
X152534523Y-108850000D01*
X152575000Y-108916666D01*
X152615476Y-108950000D01*
X152736904Y-109016666D01*
X152898809Y-109050000D01*
X153222619Y-109050000D01*
X153303571Y-109016666D01*
X153344047Y-108983333D01*
X153384523Y-108916666D01*
X153384523Y-108783333D01*
X153344047Y-108716666D01*
X153303571Y-108683333D01*
X153222619Y-108650000D01*
X153020238Y-108650000D01*
X152939285Y-108683333D01*
X152898809Y-108716666D01*
X152858333Y-108783333D01*
X152858333Y-108916666D01*
X152898809Y-108983333D01*
X152939285Y-109016666D01*
X153020238Y-109050000D01*
%TO.C,R18*%
X98884523Y-115950000D02*
X98479761Y-116183333D01*
X98884523Y-116350000D02*
X98034523Y-116350000D01*
X98034523Y-116083333D01*
X98075000Y-116016666D01*
X98115476Y-115983333D01*
X98196428Y-115950000D01*
X98317857Y-115950000D01*
X98398809Y-115983333D01*
X98439285Y-116016666D01*
X98479761Y-116083333D01*
X98479761Y-116350000D01*
X98884523Y-115283333D02*
X98884523Y-115683333D01*
X98884523Y-115483333D02*
X98034523Y-115483333D01*
X98155952Y-115550000D01*
X98236904Y-115616666D01*
X98277380Y-115683333D01*
X98398809Y-114883333D02*
X98358333Y-114950000D01*
X98317857Y-114983333D01*
X98236904Y-115016666D01*
X98196428Y-115016666D01*
X98115476Y-114983333D01*
X98075000Y-114950000D01*
X98034523Y-114883333D01*
X98034523Y-114750000D01*
X98075000Y-114683333D01*
X98115476Y-114650000D01*
X98196428Y-114616666D01*
X98236904Y-114616666D01*
X98317857Y-114650000D01*
X98358333Y-114683333D01*
X98398809Y-114750000D01*
X98398809Y-114883333D01*
X98439285Y-114950000D01*
X98479761Y-114983333D01*
X98560714Y-115016666D01*
X98722619Y-115016666D01*
X98803571Y-114983333D01*
X98844047Y-114950000D01*
X98884523Y-114883333D01*
X98884523Y-114750000D01*
X98844047Y-114683333D01*
X98803571Y-114650000D01*
X98722619Y-114616666D01*
X98560714Y-114616666D01*
X98479761Y-114650000D01*
X98439285Y-114683333D01*
X98398809Y-114750000D01*
%TO.C,J9*%
X149516666Y-102284523D02*
X149516666Y-102891666D01*
X149483333Y-103013095D01*
X149416666Y-103094047D01*
X149316666Y-103134523D01*
X149250000Y-103134523D01*
X149883333Y-103134523D02*
X150016666Y-103134523D01*
X150083333Y-103094047D01*
X150116666Y-103053571D01*
X150183333Y-102932142D01*
X150216666Y-102770238D01*
X150216666Y-102446428D01*
X150183333Y-102365476D01*
X150150000Y-102325000D01*
X150083333Y-102284523D01*
X149950000Y-102284523D01*
X149883333Y-102325000D01*
X149850000Y-102365476D01*
X149816666Y-102446428D01*
X149816666Y-102648809D01*
X149850000Y-102729761D01*
X149883333Y-102770238D01*
X149950000Y-102810714D01*
X150083333Y-102810714D01*
X150150000Y-102770238D01*
X150183333Y-102729761D01*
X150216666Y-102648809D01*
X148384523Y-101033333D02*
X147534523Y-101033333D01*
X147615476Y-100733333D02*
X147575000Y-100700000D01*
X147534523Y-100633333D01*
X147534523Y-100466666D01*
X147575000Y-100400000D01*
X147615476Y-100366666D01*
X147696428Y-100333333D01*
X147777380Y-100333333D01*
X147898809Y-100366666D01*
X148384523Y-100766666D01*
X148384523Y-100333333D01*
X148303571Y-99633333D02*
X148344047Y-99666666D01*
X148384523Y-99766666D01*
X148384523Y-99833333D01*
X148344047Y-99933333D01*
X148263095Y-100000000D01*
X148182142Y-100033333D01*
X148020238Y-100066666D01*
X147898809Y-100066666D01*
X147736904Y-100033333D01*
X147655952Y-100000000D01*
X147575000Y-99933333D01*
X147534523Y-99833333D01*
X147534523Y-99766666D01*
X147575000Y-99666666D01*
X147615476Y-99633333D01*
X148303571Y-98933333D02*
X148344047Y-98966666D01*
X148384523Y-99066666D01*
X148384523Y-99133333D01*
X148344047Y-99233333D01*
X148263095Y-99300000D01*
X148182142Y-99333333D01*
X148020238Y-99366666D01*
X147898809Y-99366666D01*
X147736904Y-99333333D01*
X147655952Y-99300000D01*
X147575000Y-99233333D01*
X147534523Y-99133333D01*
X147534523Y-99066666D01*
X147575000Y-98966666D01*
X147615476Y-98933333D01*
%TO.C,R5*%
X156134523Y-74866666D02*
X155729761Y-75100000D01*
X156134523Y-75266666D02*
X155284523Y-75266666D01*
X155284523Y-75000000D01*
X155325000Y-74933333D01*
X155365476Y-74900000D01*
X155446428Y-74866666D01*
X155567857Y-74866666D01*
X155648809Y-74900000D01*
X155689285Y-74933333D01*
X155729761Y-75000000D01*
X155729761Y-75266666D01*
X155284523Y-74233333D02*
X155284523Y-74566666D01*
X155689285Y-74600000D01*
X155648809Y-74566666D01*
X155608333Y-74500000D01*
X155608333Y-74333333D01*
X155648809Y-74266666D01*
X155689285Y-74233333D01*
X155770238Y-74200000D01*
X155972619Y-74200000D01*
X156053571Y-74233333D01*
X156094047Y-74266666D01*
X156134523Y-74333333D01*
X156134523Y-74500000D01*
X156094047Y-74566666D01*
X156053571Y-74600000D01*
%TO.C,C19*%
X145803571Y-91700000D02*
X145844047Y-91733333D01*
X145884523Y-91833333D01*
X145884523Y-91900000D01*
X145844047Y-92000000D01*
X145763095Y-92066666D01*
X145682142Y-92100000D01*
X145520238Y-92133333D01*
X145398809Y-92133333D01*
X145236904Y-92100000D01*
X145155952Y-92066666D01*
X145075000Y-92000000D01*
X145034523Y-91900000D01*
X145034523Y-91833333D01*
X145075000Y-91733333D01*
X145115476Y-91700000D01*
X145884523Y-91033333D02*
X145884523Y-91433333D01*
X145884523Y-91233333D02*
X145034523Y-91233333D01*
X145155952Y-91300000D01*
X145236904Y-91366666D01*
X145277380Y-91433333D01*
X145884523Y-90700000D02*
X145884523Y-90566666D01*
X145844047Y-90500000D01*
X145803571Y-90466666D01*
X145682142Y-90400000D01*
X145520238Y-90366666D01*
X145196428Y-90366666D01*
X145115476Y-90400000D01*
X145075000Y-90433333D01*
X145034523Y-90500000D01*
X145034523Y-90633333D01*
X145075000Y-90700000D01*
X145115476Y-90733333D01*
X145196428Y-90766666D01*
X145398809Y-90766666D01*
X145479761Y-90733333D01*
X145520238Y-90700000D01*
X145560714Y-90633333D01*
X145560714Y-90500000D01*
X145520238Y-90433333D01*
X145479761Y-90400000D01*
X145398809Y-90366666D01*
%TO.C,J2*%
X103266666Y-70874523D02*
X103266666Y-71481666D01*
X103233333Y-71603095D01*
X103166666Y-71684047D01*
X103066666Y-71724523D01*
X103000000Y-71724523D01*
X103566666Y-70955476D02*
X103600000Y-70915000D01*
X103666666Y-70874523D01*
X103833333Y-70874523D01*
X103900000Y-70915000D01*
X103933333Y-70955476D01*
X103966666Y-71036428D01*
X103966666Y-71117380D01*
X103933333Y-71238809D01*
X103533333Y-71724523D01*
X103966666Y-71724523D01*
%TO.C,C1*%
X98883333Y-68803571D02*
X98850000Y-68844047D01*
X98750000Y-68884523D01*
X98683333Y-68884523D01*
X98583333Y-68844047D01*
X98516666Y-68763095D01*
X98483333Y-68682142D01*
X98450000Y-68520238D01*
X98450000Y-68398809D01*
X98483333Y-68236904D01*
X98516666Y-68155952D01*
X98583333Y-68075000D01*
X98683333Y-68034523D01*
X98750000Y-68034523D01*
X98850000Y-68075000D01*
X98883333Y-68115476D01*
X99550000Y-68884523D02*
X99150000Y-68884523D01*
X99350000Y-68884523D02*
X99350000Y-68034523D01*
X99283333Y-68155952D01*
X99216666Y-68236904D01*
X99150000Y-68277380D01*
%TO.C,R13*%
X97384523Y-109950000D02*
X96979761Y-110183333D01*
X97384523Y-110350000D02*
X96534523Y-110350000D01*
X96534523Y-110083333D01*
X96575000Y-110016666D01*
X96615476Y-109983333D01*
X96696428Y-109950000D01*
X96817857Y-109950000D01*
X96898809Y-109983333D01*
X96939285Y-110016666D01*
X96979761Y-110083333D01*
X96979761Y-110350000D01*
X97384523Y-109283333D02*
X97384523Y-109683333D01*
X97384523Y-109483333D02*
X96534523Y-109483333D01*
X96655952Y-109550000D01*
X96736904Y-109616666D01*
X96777380Y-109683333D01*
X96534523Y-109050000D02*
X96534523Y-108616666D01*
X96858333Y-108850000D01*
X96858333Y-108750000D01*
X96898809Y-108683333D01*
X96939285Y-108650000D01*
X97020238Y-108616666D01*
X97222619Y-108616666D01*
X97303571Y-108650000D01*
X97344047Y-108683333D01*
X97384523Y-108750000D01*
X97384523Y-108950000D01*
X97344047Y-109016666D01*
X97303571Y-109050000D01*
%TO.C,R19*%
X131374523Y-96950000D02*
X130969761Y-97183333D01*
X131374523Y-97350000D02*
X130524523Y-97350000D01*
X130524523Y-97083333D01*
X130565000Y-97016666D01*
X130605476Y-96983333D01*
X130686428Y-96950000D01*
X130807857Y-96950000D01*
X130888809Y-96983333D01*
X130929285Y-97016666D01*
X130969761Y-97083333D01*
X130969761Y-97350000D01*
X131374523Y-96283333D02*
X131374523Y-96683333D01*
X131374523Y-96483333D02*
X130524523Y-96483333D01*
X130645952Y-96550000D01*
X130726904Y-96616666D01*
X130767380Y-96683333D01*
X131374523Y-95950000D02*
X131374523Y-95816666D01*
X131334047Y-95750000D01*
X131293571Y-95716666D01*
X131172142Y-95650000D01*
X131010238Y-95616666D01*
X130686428Y-95616666D01*
X130605476Y-95650000D01*
X130565000Y-95683333D01*
X130524523Y-95750000D01*
X130524523Y-95883333D01*
X130565000Y-95950000D01*
X130605476Y-95983333D01*
X130686428Y-96016666D01*
X130888809Y-96016666D01*
X130969761Y-95983333D01*
X131010238Y-95950000D01*
X131050714Y-95883333D01*
X131050714Y-95750000D01*
X131010238Y-95683333D01*
X130969761Y-95650000D01*
X130888809Y-95616666D01*
%TO.C,C7*%
X127133333Y-93303571D02*
X127100000Y-93344047D01*
X127000000Y-93384523D01*
X126933333Y-93384523D01*
X126833333Y-93344047D01*
X126766666Y-93263095D01*
X126733333Y-93182142D01*
X126700000Y-93020238D01*
X126700000Y-92898809D01*
X126733333Y-92736904D01*
X126766666Y-92655952D01*
X126833333Y-92575000D01*
X126933333Y-92534523D01*
X127000000Y-92534523D01*
X127100000Y-92575000D01*
X127133333Y-92615476D01*
X127366666Y-92534523D02*
X127833333Y-92534523D01*
X127533333Y-93384523D01*
%TO.C,R3*%
X110883333Y-77384523D02*
X110650000Y-76979761D01*
X110483333Y-77384523D02*
X110483333Y-76534523D01*
X110750000Y-76534523D01*
X110816666Y-76575000D01*
X110850000Y-76615476D01*
X110883333Y-76696428D01*
X110883333Y-76817857D01*
X110850000Y-76898809D01*
X110816666Y-76939285D01*
X110750000Y-76979761D01*
X110483333Y-76979761D01*
X111116666Y-76534523D02*
X111550000Y-76534523D01*
X111316666Y-76858333D01*
X111416666Y-76858333D01*
X111483333Y-76898809D01*
X111516666Y-76939285D01*
X111550000Y-77020238D01*
X111550000Y-77222619D01*
X111516666Y-77303571D01*
X111483333Y-77344047D01*
X111416666Y-77384523D01*
X111216666Y-77384523D01*
X111150000Y-77344047D01*
X111116666Y-77303571D01*
%TO.C,C12*%
X139803571Y-81700000D02*
X139844047Y-81733333D01*
X139884523Y-81833333D01*
X139884523Y-81900000D01*
X139844047Y-82000000D01*
X139763095Y-82066666D01*
X139682142Y-82100000D01*
X139520238Y-82133333D01*
X139398809Y-82133333D01*
X139236904Y-82100000D01*
X139155952Y-82066666D01*
X139075000Y-82000000D01*
X139034523Y-81900000D01*
X139034523Y-81833333D01*
X139075000Y-81733333D01*
X139115476Y-81700000D01*
X139884523Y-81033333D02*
X139884523Y-81433333D01*
X139884523Y-81233333D02*
X139034523Y-81233333D01*
X139155952Y-81300000D01*
X139236904Y-81366666D01*
X139277380Y-81433333D01*
X139115476Y-80766666D02*
X139075000Y-80733333D01*
X139034523Y-80666666D01*
X139034523Y-80500000D01*
X139075000Y-80433333D01*
X139115476Y-80400000D01*
X139196428Y-80366666D01*
X139277380Y-80366666D01*
X139398809Y-80400000D01*
X139884523Y-80800000D01*
X139884523Y-80366666D01*
%TO.C,R17*%
X97384523Y-115950000D02*
X96979761Y-116183333D01*
X97384523Y-116350000D02*
X96534523Y-116350000D01*
X96534523Y-116083333D01*
X96575000Y-116016666D01*
X96615476Y-115983333D01*
X96696428Y-115950000D01*
X96817857Y-115950000D01*
X96898809Y-115983333D01*
X96939285Y-116016666D01*
X96979761Y-116083333D01*
X96979761Y-116350000D01*
X97384523Y-115283333D02*
X97384523Y-115683333D01*
X97384523Y-115483333D02*
X96534523Y-115483333D01*
X96655952Y-115550000D01*
X96736904Y-115616666D01*
X96777380Y-115683333D01*
X96534523Y-115050000D02*
X96534523Y-114583333D01*
X97384523Y-114883333D01*
%TO.C,R1*%
X110883333Y-72884523D02*
X110650000Y-72479761D01*
X110483333Y-72884523D02*
X110483333Y-72034523D01*
X110750000Y-72034523D01*
X110816666Y-72075000D01*
X110850000Y-72115476D01*
X110883333Y-72196428D01*
X110883333Y-72317857D01*
X110850000Y-72398809D01*
X110816666Y-72439285D01*
X110750000Y-72479761D01*
X110483333Y-72479761D01*
X111550000Y-72884523D02*
X111150000Y-72884523D01*
X111350000Y-72884523D02*
X111350000Y-72034523D01*
X111283333Y-72155952D01*
X111216666Y-72236904D01*
X111150000Y-72277380D01*
%TO.C,SW2*%
X145050000Y-74689285D02*
X145150000Y-74729761D01*
X145183333Y-74770238D01*
X145216666Y-74851190D01*
X145216666Y-74972619D01*
X145183333Y-75053571D01*
X145150000Y-75094047D01*
X145083333Y-75134523D01*
X144816666Y-75134523D01*
X144816666Y-74284523D01*
X145050000Y-74284523D01*
X145116666Y-74325000D01*
X145150000Y-74365476D01*
X145183333Y-74446428D01*
X145183333Y-74527380D01*
X145150000Y-74608333D01*
X145116666Y-74648809D01*
X145050000Y-74689285D01*
X144816666Y-74689285D01*
X145650000Y-74284523D02*
X145783333Y-74284523D01*
X145850000Y-74325000D01*
X145916666Y-74405952D01*
X145950000Y-74567857D01*
X145950000Y-74851190D01*
X145916666Y-75013095D01*
X145850000Y-75094047D01*
X145783333Y-75134523D01*
X145650000Y-75134523D01*
X145583333Y-75094047D01*
X145516666Y-75013095D01*
X145483333Y-74851190D01*
X145483333Y-74567857D01*
X145516666Y-74405952D01*
X145583333Y-74325000D01*
X145650000Y-74284523D01*
X146383333Y-74284523D02*
X146516666Y-74284523D01*
X146583333Y-74325000D01*
X146650000Y-74405952D01*
X146683333Y-74567857D01*
X146683333Y-74851190D01*
X146650000Y-75013095D01*
X146583333Y-75094047D01*
X146516666Y-75134523D01*
X146383333Y-75134523D01*
X146316666Y-75094047D01*
X146250000Y-75013095D01*
X146216666Y-74851190D01*
X146216666Y-74567857D01*
X146250000Y-74405952D01*
X146316666Y-74325000D01*
X146383333Y-74284523D01*
X146883333Y-74284523D02*
X147283333Y-74284523D01*
X147083333Y-75134523D02*
X147083333Y-74284523D01*
%TO.C,C20*%
X145803571Y-101700000D02*
X145844047Y-101733333D01*
X145884523Y-101833333D01*
X145884523Y-101900000D01*
X145844047Y-102000000D01*
X145763095Y-102066666D01*
X145682142Y-102100000D01*
X145520238Y-102133333D01*
X145398809Y-102133333D01*
X145236904Y-102100000D01*
X145155952Y-102066666D01*
X145075000Y-102000000D01*
X145034523Y-101900000D01*
X145034523Y-101833333D01*
X145075000Y-101733333D01*
X145115476Y-101700000D01*
X145115476Y-101433333D02*
X145075000Y-101400000D01*
X145034523Y-101333333D01*
X145034523Y-101166666D01*
X145075000Y-101100000D01*
X145115476Y-101066666D01*
X145196428Y-101033333D01*
X145277380Y-101033333D01*
X145398809Y-101066666D01*
X145884523Y-101466666D01*
X145884523Y-101033333D01*
X145034523Y-100600000D02*
X145034523Y-100533333D01*
X145075000Y-100466666D01*
X145115476Y-100433333D01*
X145196428Y-100400000D01*
X145358333Y-100366666D01*
X145560714Y-100366666D01*
X145722619Y-100400000D01*
X145803571Y-100433333D01*
X145844047Y-100466666D01*
X145884523Y-100533333D01*
X145884523Y-100600000D01*
X145844047Y-100666666D01*
X145803571Y-100700000D01*
X145722619Y-100733333D01*
X145560714Y-100766666D01*
X145358333Y-100766666D01*
X145196428Y-100733333D01*
X145115476Y-100700000D01*
X145075000Y-100666666D01*
X145034523Y-100600000D01*
%TO.C,U2*%
X106966666Y-91534523D02*
X106966666Y-92222619D01*
X107000000Y-92303571D01*
X107033333Y-92344047D01*
X107100000Y-92384523D01*
X107233333Y-92384523D01*
X107300000Y-92344047D01*
X107333333Y-92303571D01*
X107366666Y-92222619D01*
X107366666Y-91534523D01*
X107666666Y-91615476D02*
X107700000Y-91575000D01*
X107766666Y-91534523D01*
X107933333Y-91534523D01*
X108000000Y-91575000D01*
X108033333Y-91615476D01*
X108066666Y-91696428D01*
X108066666Y-91777380D01*
X108033333Y-91898809D01*
X107633333Y-92384523D01*
X108066666Y-92384523D01*
%TO.C,R16*%
X156384523Y-115950000D02*
X155979761Y-116183333D01*
X156384523Y-116350000D02*
X155534523Y-116350000D01*
X155534523Y-116083333D01*
X155575000Y-116016666D01*
X155615476Y-115983333D01*
X155696428Y-115950000D01*
X155817857Y-115950000D01*
X155898809Y-115983333D01*
X155939285Y-116016666D01*
X155979761Y-116083333D01*
X155979761Y-116350000D01*
X156384523Y-115283333D02*
X156384523Y-115683333D01*
X156384523Y-115483333D02*
X155534523Y-115483333D01*
X155655952Y-115550000D01*
X155736904Y-115616666D01*
X155777380Y-115683333D01*
X155534523Y-114683333D02*
X155534523Y-114816666D01*
X155575000Y-114883333D01*
X155615476Y-114916666D01*
X155736904Y-114983333D01*
X155898809Y-115016666D01*
X156222619Y-115016666D01*
X156303571Y-114983333D01*
X156344047Y-114950000D01*
X156384523Y-114883333D01*
X156384523Y-114750000D01*
X156344047Y-114683333D01*
X156303571Y-114650000D01*
X156222619Y-114616666D01*
X156020238Y-114616666D01*
X155939285Y-114650000D01*
X155898809Y-114683333D01*
X155858333Y-114750000D01*
X155858333Y-114883333D01*
X155898809Y-114950000D01*
X155939285Y-114983333D01*
X156020238Y-115016666D01*
%TO.C,J3*%
X119766666Y-99034523D02*
X119766666Y-99641666D01*
X119733333Y-99763095D01*
X119666666Y-99844047D01*
X119566666Y-99884523D01*
X119500000Y-99884523D01*
X120033333Y-99034523D02*
X120466666Y-99034523D01*
X120233333Y-99358333D01*
X120333333Y-99358333D01*
X120400000Y-99398809D01*
X120433333Y-99439285D01*
X120466666Y-99520238D01*
X120466666Y-99722619D01*
X120433333Y-99803571D01*
X120400000Y-99844047D01*
X120333333Y-99884523D01*
X120133333Y-99884523D01*
X120066666Y-99844047D01*
X120033333Y-99803571D01*
%TO.C,C5*%
X145116666Y-86696428D02*
X145150000Y-86655952D01*
X145250000Y-86615476D01*
X145316666Y-86615476D01*
X145416666Y-86655952D01*
X145483333Y-86736904D01*
X145516666Y-86817857D01*
X145550000Y-86979761D01*
X145550000Y-87101190D01*
X145516666Y-87263095D01*
X145483333Y-87344047D01*
X145416666Y-87425000D01*
X145316666Y-87465476D01*
X145250000Y-87465476D01*
X145150000Y-87425000D01*
X145116666Y-87384523D01*
X144483333Y-87465476D02*
X144816666Y-87465476D01*
X144850000Y-87060714D01*
X144816666Y-87101190D01*
X144750000Y-87141666D01*
X144583333Y-87141666D01*
X144516666Y-87101190D01*
X144483333Y-87060714D01*
X144450000Y-86979761D01*
X144450000Y-86777380D01*
X144483333Y-86696428D01*
X144516666Y-86655952D01*
X144583333Y-86615476D01*
X144750000Y-86615476D01*
X144816666Y-86655952D01*
X144850000Y-86696428D01*
%TO.C,J8*%
X149516666Y-92534523D02*
X149516666Y-93141666D01*
X149483333Y-93263095D01*
X149416666Y-93344047D01*
X149316666Y-93384523D01*
X149250000Y-93384523D01*
X149950000Y-92898809D02*
X149883333Y-92858333D01*
X149850000Y-92817857D01*
X149816666Y-92736904D01*
X149816666Y-92696428D01*
X149850000Y-92615476D01*
X149883333Y-92575000D01*
X149950000Y-92534523D01*
X150083333Y-92534523D01*
X150150000Y-92575000D01*
X150183333Y-92615476D01*
X150216666Y-92696428D01*
X150216666Y-92736904D01*
X150183333Y-92817857D01*
X150150000Y-92858333D01*
X150083333Y-92898809D01*
X149950000Y-92898809D01*
X149883333Y-92939285D01*
X149850000Y-92979761D01*
X149816666Y-93060714D01*
X149816666Y-93222619D01*
X149850000Y-93303571D01*
X149883333Y-93344047D01*
X149950000Y-93384523D01*
X150083333Y-93384523D01*
X150150000Y-93344047D01*
X150183333Y-93303571D01*
X150216666Y-93222619D01*
X150216666Y-93060714D01*
X150183333Y-92979761D01*
X150150000Y-92939285D01*
X150083333Y-92898809D01*
X148384523Y-91033333D02*
X147534523Y-91033333D01*
X147615476Y-90733333D02*
X147575000Y-90700000D01*
X147534523Y-90633333D01*
X147534523Y-90466666D01*
X147575000Y-90400000D01*
X147615476Y-90366666D01*
X147696428Y-90333333D01*
X147777380Y-90333333D01*
X147898809Y-90366666D01*
X148384523Y-90766666D01*
X148384523Y-90333333D01*
X148303571Y-89633333D02*
X148344047Y-89666666D01*
X148384523Y-89766666D01*
X148384523Y-89833333D01*
X148344047Y-89933333D01*
X148263095Y-90000000D01*
X148182142Y-90033333D01*
X148020238Y-90066666D01*
X147898809Y-90066666D01*
X147736904Y-90033333D01*
X147655952Y-90000000D01*
X147575000Y-89933333D01*
X147534523Y-89833333D01*
X147534523Y-89766666D01*
X147575000Y-89666666D01*
X147615476Y-89633333D01*
X147939285Y-89100000D02*
X147979761Y-89000000D01*
X148020238Y-88966666D01*
X148101190Y-88933333D01*
X148222619Y-88933333D01*
X148303571Y-88966666D01*
X148344047Y-89000000D01*
X148384523Y-89066666D01*
X148384523Y-89333333D01*
X147534523Y-89333333D01*
X147534523Y-89100000D01*
X147575000Y-89033333D01*
X147615476Y-89000000D01*
X147696428Y-88966666D01*
X147777380Y-88966666D01*
X147858333Y-89000000D01*
X147898809Y-89033333D01*
X147939285Y-89100000D01*
X147939285Y-89333333D01*
%TO.C,D1*%
X102983333Y-72884523D02*
X102983333Y-72034523D01*
X103150000Y-72034523D01*
X103250000Y-72075000D01*
X103316666Y-72155952D01*
X103350000Y-72236904D01*
X103383333Y-72398809D01*
X103383333Y-72520238D01*
X103350000Y-72682142D01*
X103316666Y-72763095D01*
X103250000Y-72844047D01*
X103150000Y-72884523D01*
X102983333Y-72884523D01*
X104050000Y-72884523D02*
X103650000Y-72884523D01*
X103850000Y-72884523D02*
X103850000Y-72034523D01*
X103783333Y-72155952D01*
X103716666Y-72236904D01*
X103650000Y-72277380D01*
%TO.C,FB8*%
X152939285Y-116083333D02*
X152939285Y-116316666D01*
X153384523Y-116316666D02*
X152534523Y-116316666D01*
X152534523Y-115983333D01*
X152939285Y-115483333D02*
X152979761Y-115383333D01*
X153020238Y-115350000D01*
X153101190Y-115316666D01*
X153222619Y-115316666D01*
X153303571Y-115350000D01*
X153344047Y-115383333D01*
X153384523Y-115450000D01*
X153384523Y-115716666D01*
X152534523Y-115716666D01*
X152534523Y-115483333D01*
X152575000Y-115416666D01*
X152615476Y-115383333D01*
X152696428Y-115350000D01*
X152777380Y-115350000D01*
X152858333Y-115383333D01*
X152898809Y-115416666D01*
X152939285Y-115483333D01*
X152939285Y-115716666D01*
X152898809Y-114916666D02*
X152858333Y-114983333D01*
X152817857Y-115016666D01*
X152736904Y-115050000D01*
X152696428Y-115050000D01*
X152615476Y-115016666D01*
X152575000Y-114983333D01*
X152534523Y-114916666D01*
X152534523Y-114783333D01*
X152575000Y-114716666D01*
X152615476Y-114683333D01*
X152696428Y-114650000D01*
X152736904Y-114650000D01*
X152817857Y-114683333D01*
X152858333Y-114716666D01*
X152898809Y-114783333D01*
X152898809Y-114916666D01*
X152939285Y-114983333D01*
X152979761Y-115016666D01*
X153060714Y-115050000D01*
X153222619Y-115050000D01*
X153303571Y-115016666D01*
X153344047Y-114983333D01*
X153384523Y-114916666D01*
X153384523Y-114783333D01*
X153344047Y-114716666D01*
X153303571Y-114683333D01*
X153222619Y-114650000D01*
X153060714Y-114650000D01*
X152979761Y-114683333D01*
X152939285Y-114716666D01*
X152898809Y-114783333D01*
%TO.C,U1*%
X106966666Y-81534523D02*
X106966666Y-82222619D01*
X107000000Y-82303571D01*
X107033333Y-82344047D01*
X107100000Y-82384523D01*
X107233333Y-82384523D01*
X107300000Y-82344047D01*
X107333333Y-82303571D01*
X107366666Y-82222619D01*
X107366666Y-81534523D01*
X108066666Y-82384523D02*
X107666666Y-82384523D01*
X107866666Y-82384523D02*
X107866666Y-81534523D01*
X107800000Y-81655952D01*
X107733333Y-81736904D01*
X107666666Y-81777380D01*
%TO.C,FB7*%
X152939285Y-113083333D02*
X152939285Y-113316666D01*
X153384523Y-113316666D02*
X152534523Y-113316666D01*
X152534523Y-112983333D01*
X152939285Y-112483333D02*
X152979761Y-112383333D01*
X153020238Y-112350000D01*
X153101190Y-112316666D01*
X153222619Y-112316666D01*
X153303571Y-112350000D01*
X153344047Y-112383333D01*
X153384523Y-112450000D01*
X153384523Y-112716666D01*
X152534523Y-112716666D01*
X152534523Y-112483333D01*
X152575000Y-112416666D01*
X152615476Y-112383333D01*
X152696428Y-112350000D01*
X152777380Y-112350000D01*
X152858333Y-112383333D01*
X152898809Y-112416666D01*
X152939285Y-112483333D01*
X152939285Y-112716666D01*
X152534523Y-112083333D02*
X152534523Y-111616666D01*
X153384523Y-111916666D01*
%TO.C,C16*%
X104803571Y-92700000D02*
X104844047Y-92733333D01*
X104884523Y-92833333D01*
X104884523Y-92900000D01*
X104844047Y-93000000D01*
X104763095Y-93066666D01*
X104682142Y-93100000D01*
X104520238Y-93133333D01*
X104398809Y-93133333D01*
X104236904Y-93100000D01*
X104155952Y-93066666D01*
X104075000Y-93000000D01*
X104034523Y-92900000D01*
X104034523Y-92833333D01*
X104075000Y-92733333D01*
X104115476Y-92700000D01*
X104884523Y-92033333D02*
X104884523Y-92433333D01*
X104884523Y-92233333D02*
X104034523Y-92233333D01*
X104155952Y-92300000D01*
X104236904Y-92366666D01*
X104277380Y-92433333D01*
X104034523Y-91433333D02*
X104034523Y-91566666D01*
X104075000Y-91633333D01*
X104115476Y-91666666D01*
X104236904Y-91733333D01*
X104398809Y-91766666D01*
X104722619Y-91766666D01*
X104803571Y-91733333D01*
X104844047Y-91700000D01*
X104884523Y-91633333D01*
X104884523Y-91500000D01*
X104844047Y-91433333D01*
X104803571Y-91400000D01*
X104722619Y-91366666D01*
X104520238Y-91366666D01*
X104439285Y-91400000D01*
X104398809Y-91433333D01*
X104358333Y-91500000D01*
X104358333Y-91633333D01*
X104398809Y-91700000D01*
X104439285Y-91733333D01*
X104520238Y-91766666D01*
%TO.C,C11*%
X110803571Y-102700000D02*
X110844047Y-102733333D01*
X110884523Y-102833333D01*
X110884523Y-102900000D01*
X110844047Y-103000000D01*
X110763095Y-103066666D01*
X110682142Y-103100000D01*
X110520238Y-103133333D01*
X110398809Y-103133333D01*
X110236904Y-103100000D01*
X110155952Y-103066666D01*
X110075000Y-103000000D01*
X110034523Y-102900000D01*
X110034523Y-102833333D01*
X110075000Y-102733333D01*
X110115476Y-102700000D01*
X110884523Y-102033333D02*
X110884523Y-102433333D01*
X110884523Y-102233333D02*
X110034523Y-102233333D01*
X110155952Y-102300000D01*
X110236904Y-102366666D01*
X110277380Y-102433333D01*
X110884523Y-101366666D02*
X110884523Y-101766666D01*
X110884523Y-101566666D02*
X110034523Y-101566666D01*
X110155952Y-101633333D01*
X110236904Y-101700000D01*
X110277380Y-101766666D01*
%TO.C,FB1*%
X101666666Y-68439285D02*
X101433333Y-68439285D01*
X101433333Y-68884523D02*
X101433333Y-68034523D01*
X101766666Y-68034523D01*
X102266666Y-68439285D02*
X102366666Y-68479761D01*
X102400000Y-68520238D01*
X102433333Y-68601190D01*
X102433333Y-68722619D01*
X102400000Y-68803571D01*
X102366666Y-68844047D01*
X102300000Y-68884523D01*
X102033333Y-68884523D01*
X102033333Y-68034523D01*
X102266666Y-68034523D01*
X102333333Y-68075000D01*
X102366666Y-68115476D01*
X102400000Y-68196428D01*
X102400000Y-68277380D01*
X102366666Y-68358333D01*
X102333333Y-68398809D01*
X102266666Y-68439285D01*
X102033333Y-68439285D01*
X103100000Y-68884523D02*
X102700000Y-68884523D01*
X102900000Y-68884523D02*
X102900000Y-68034523D01*
X102833333Y-68155952D01*
X102766666Y-68236904D01*
X102700000Y-68277380D01*
%TO.C,C3*%
X144883333Y-77303571D02*
X144850000Y-77344047D01*
X144750000Y-77384523D01*
X144683333Y-77384523D01*
X144583333Y-77344047D01*
X144516666Y-77263095D01*
X144483333Y-77182142D01*
X144450000Y-77020238D01*
X144450000Y-76898809D01*
X144483333Y-76736904D01*
X144516666Y-76655952D01*
X144583333Y-76575000D01*
X144683333Y-76534523D01*
X144750000Y-76534523D01*
X144850000Y-76575000D01*
X144883333Y-76615476D01*
X145116666Y-76534523D02*
X145550000Y-76534523D01*
X145316666Y-76858333D01*
X145416666Y-76858333D01*
X145483333Y-76898809D01*
X145516666Y-76939285D01*
X145550000Y-77020238D01*
X145550000Y-77222619D01*
X145516666Y-77303571D01*
X145483333Y-77344047D01*
X145416666Y-77384523D01*
X145216666Y-77384523D01*
X145150000Y-77344047D01*
X145116666Y-77303571D01*
%TO.C,C8*%
X122803571Y-95616666D02*
X122844047Y-95650000D01*
X122884523Y-95750000D01*
X122884523Y-95816666D01*
X122844047Y-95916666D01*
X122763095Y-95983333D01*
X122682142Y-96016666D01*
X122520238Y-96050000D01*
X122398809Y-96050000D01*
X122236904Y-96016666D01*
X122155952Y-95983333D01*
X122075000Y-95916666D01*
X122034523Y-95816666D01*
X122034523Y-95750000D01*
X122075000Y-95650000D01*
X122115476Y-95616666D01*
X122398809Y-95216666D02*
X122358333Y-95283333D01*
X122317857Y-95316666D01*
X122236904Y-95350000D01*
X122196428Y-95350000D01*
X122115476Y-95316666D01*
X122075000Y-95283333D01*
X122034523Y-95216666D01*
X122034523Y-95083333D01*
X122075000Y-95016666D01*
X122115476Y-94983333D01*
X122196428Y-94950000D01*
X122236904Y-94950000D01*
X122317857Y-94983333D01*
X122358333Y-95016666D01*
X122398809Y-95083333D01*
X122398809Y-95216666D01*
X122439285Y-95283333D01*
X122479761Y-95316666D01*
X122560714Y-95350000D01*
X122722619Y-95350000D01*
X122803571Y-95316666D01*
X122844047Y-95283333D01*
X122884523Y-95216666D01*
X122884523Y-95083333D01*
X122844047Y-95016666D01*
X122803571Y-94983333D01*
X122722619Y-94950000D01*
X122560714Y-94950000D01*
X122479761Y-94983333D01*
X122439285Y-95016666D01*
X122398809Y-95083333D01*
%TO.C,FB5*%
X95439285Y-116083333D02*
X95439285Y-116316666D01*
X95884523Y-116316666D02*
X95034523Y-116316666D01*
X95034523Y-115983333D01*
X95439285Y-115483333D02*
X95479761Y-115383333D01*
X95520238Y-115350000D01*
X95601190Y-115316666D01*
X95722619Y-115316666D01*
X95803571Y-115350000D01*
X95844047Y-115383333D01*
X95884523Y-115450000D01*
X95884523Y-115716666D01*
X95034523Y-115716666D01*
X95034523Y-115483333D01*
X95075000Y-115416666D01*
X95115476Y-115383333D01*
X95196428Y-115350000D01*
X95277380Y-115350000D01*
X95358333Y-115383333D01*
X95398809Y-115416666D01*
X95439285Y-115483333D01*
X95439285Y-115716666D01*
X95034523Y-114683333D02*
X95034523Y-115016666D01*
X95439285Y-115050000D01*
X95398809Y-115016666D01*
X95358333Y-114950000D01*
X95358333Y-114783333D01*
X95398809Y-114716666D01*
X95439285Y-114683333D01*
X95520238Y-114650000D01*
X95722619Y-114650000D01*
X95803571Y-114683333D01*
X95844047Y-114716666D01*
X95884523Y-114783333D01*
X95884523Y-114950000D01*
X95844047Y-115016666D01*
X95803571Y-115050000D01*
%TO.C,R15*%
X154884523Y-115950000D02*
X154479761Y-116183333D01*
X154884523Y-116350000D02*
X154034523Y-116350000D01*
X154034523Y-116083333D01*
X154075000Y-116016666D01*
X154115476Y-115983333D01*
X154196428Y-115950000D01*
X154317857Y-115950000D01*
X154398809Y-115983333D01*
X154439285Y-116016666D01*
X154479761Y-116083333D01*
X154479761Y-116350000D01*
X154884523Y-115283333D02*
X154884523Y-115683333D01*
X154884523Y-115483333D02*
X154034523Y-115483333D01*
X154155952Y-115550000D01*
X154236904Y-115616666D01*
X154277380Y-115683333D01*
X154034523Y-114650000D02*
X154034523Y-114983333D01*
X154439285Y-115016666D01*
X154398809Y-114983333D01*
X154358333Y-114916666D01*
X154358333Y-114750000D01*
X154398809Y-114683333D01*
X154439285Y-114650000D01*
X154520238Y-114616666D01*
X154722619Y-114616666D01*
X154803571Y-114650000D01*
X154844047Y-114683333D01*
X154884523Y-114750000D01*
X154884523Y-114916666D01*
X154844047Y-114983333D01*
X154803571Y-115016666D01*
%TO.C,C15*%
X104860000Y-80142164D02*
X104860000Y-80357836D01*
X104140000Y-80142164D02*
X104140000Y-80357836D01*
%TO.C,C24*%
X152010000Y-84859420D02*
X152010000Y-85140580D01*
X150990000Y-84859420D02*
X150990000Y-85140580D01*
D10*
%TO.C,J1*%
X140700000Y-72400000D02*
X139975000Y-72400000D01*
X143575000Y-72825000D02*
X144300000Y-72825000D01*
X146650000Y-66850000D02*
X146650000Y-66700000D01*
X138650000Y-66700000D02*
X138350000Y-66700000D01*
X144300000Y-72825000D02*
X144300000Y-72400000D01*
X138350000Y-66700000D02*
X138350000Y-66850000D01*
X146650000Y-66700000D02*
X146350000Y-66700000D01*
X138350000Y-69250000D02*
X138350000Y-70650000D01*
X138650000Y-66250000D02*
X138650000Y-66700000D01*
X146650000Y-70650000D02*
X146650000Y-69250000D01*
X146350000Y-66700000D02*
X146350000Y-66250000D01*
X144300000Y-72400000D02*
X145025000Y-72400000D01*
D11*
%TO.C,C4*%
X149640000Y-70357836D02*
X149640000Y-70142164D01*
X150360000Y-70357836D02*
X150360000Y-70142164D01*
%TO.C,C9*%
X110860000Y-80142164D02*
X110860000Y-80357836D01*
X110140000Y-80142164D02*
X110140000Y-80357836D01*
%TO.C,C17*%
X104860000Y-100162164D02*
X104860000Y-100377836D01*
X104140000Y-100162164D02*
X104140000Y-100377836D01*
%TO.C,R20*%
X129522500Y-93987258D02*
X129522500Y-93512742D01*
X128477500Y-93987258D02*
X128477500Y-93512742D01*
%TO.C,C14*%
X139140000Y-99357836D02*
X139140000Y-99142164D01*
X139860000Y-99357836D02*
X139860000Y-99142164D01*
%TO.C,C26*%
X150990000Y-104859420D02*
X150990000Y-105140580D01*
X152010000Y-104859420D02*
X152010000Y-105140580D01*
%TO.C,C18*%
X145140000Y-79357836D02*
X145140000Y-79142164D01*
X145860000Y-79357836D02*
X145860000Y-79142164D01*
%TO.C,C22*%
X94510000Y-94859420D02*
X94510000Y-95140580D01*
X93490000Y-94859420D02*
X93490000Y-95140580D01*
%TO.C,C13*%
X139860000Y-89357836D02*
X139860000Y-89142164D01*
X139140000Y-89357836D02*
X139140000Y-89142164D01*
D12*
%TO.C,SW3*%
X141463500Y-83750000D02*
X143536500Y-83750000D01*
X141463500Y-85750000D02*
X143536500Y-85750000D01*
D13*
X140100000Y-84750000D02*
G75*
G03*
X140100000Y-84750000I-100000J0D01*
G01*
D11*
%TO.C,D4*%
X121735000Y-92265000D02*
X120265000Y-92265000D01*
X120265000Y-92265000D02*
X120265000Y-94550000D01*
X121735000Y-94550000D02*
X121735000Y-92265000D01*
D12*
%TO.C,U6*%
X141700000Y-98180000D02*
X143300000Y-98180000D01*
X141700000Y-101320000D02*
X143300000Y-101320000D01*
D13*
X140400000Y-98800000D02*
G75*
G03*
X140400000Y-98800000I-100000J0D01*
G01*
D14*
%TO.C,M2*%
X119982897Y-113473802D02*
X119664699Y-113792000D01*
X123638639Y-107795734D02*
X124649802Y-108806897D01*
D11*
X142748000Y-104842000D02*
X144078000Y-104842000D01*
D14*
X129953103Y-114110198D02*
X130271301Y-113792000D01*
X126297361Y-119788266D02*
X125286198Y-118777103D01*
D11*
X141478000Y-120082000D02*
X105858000Y-120082000D01*
D14*
X124649802Y-108806897D02*
X124968000Y-108488699D01*
D11*
X144078000Y-120082000D02*
X144078000Y-121412000D01*
D14*
X130271301Y-113792000D02*
X129953103Y-113473802D01*
D11*
X142748000Y-120082000D02*
X144078000Y-120082000D01*
D14*
X119664699Y-113792000D02*
X119982897Y-114110198D01*
X124968000Y-119095301D02*
X124649802Y-118777103D01*
X123638639Y-107795734D02*
X118971734Y-112462639D01*
D11*
X141478000Y-122742000D02*
X105858000Y-122742000D01*
D14*
X125286198Y-108806897D02*
X126297361Y-107795734D01*
D11*
X105858000Y-104842000D02*
X105858000Y-107502000D01*
D14*
X119982897Y-114110198D02*
X118971734Y-115121361D01*
D11*
X144078000Y-104842000D02*
X144078000Y-106172000D01*
X105858000Y-120082000D02*
X105858000Y-122742000D01*
D14*
X126297361Y-119788266D02*
X130964266Y-115121361D01*
X138788000Y-113322000D02*
X140648000Y-113322000D01*
X129953103Y-113473802D02*
X130964266Y-112462639D01*
X130964266Y-115121361D02*
X129953103Y-114110198D01*
D11*
X141478000Y-107502000D02*
X105858000Y-107502000D01*
D14*
X140648000Y-113322000D02*
X140648000Y-114262000D01*
D11*
X141478000Y-104842000D02*
X141478000Y-107502000D01*
D14*
X123638639Y-119788266D02*
X118971734Y-115121361D01*
X124649802Y-118777103D02*
X123638639Y-119788266D01*
X140648000Y-114262000D02*
X138788000Y-114262000D01*
D11*
X141478000Y-120082000D02*
X141478000Y-122742000D01*
X141478000Y-104842000D02*
X105858000Y-104842000D01*
D14*
X126297361Y-107795734D02*
X130964266Y-112462639D01*
X138788000Y-114262000D02*
X138788000Y-113322000D01*
X118971734Y-112462639D02*
X119982897Y-113473802D01*
X124968000Y-108488699D02*
X125286198Y-108806897D01*
X125286198Y-118777103D02*
X124968000Y-119095301D01*
D10*
X103268000Y-104792000D02*
X146668000Y-104792000D01*
X146668000Y-104792000D02*
X146668000Y-122792000D01*
X146668000Y-122792000D02*
X103268000Y-122792000D01*
X103268000Y-122792000D02*
X103268000Y-104792000D01*
D11*
X140858000Y-113792000D02*
G75*
G03*
X140858000Y-113792000I-50000J0D01*
G01*
X139818000Y-113042000D02*
G75*
G03*
X139818000Y-113042000I-100000J0D01*
G01*
X139818000Y-114542000D02*
G75*
G03*
X139818000Y-114542000I-100000J0D01*
G01*
%TO.C,C2*%
X142640580Y-102740000D02*
X142359420Y-102740000D01*
X142640580Y-103760000D02*
X142359420Y-103760000D01*
%TO.C,R7*%
X138120000Y-74596359D02*
X138120000Y-74903641D01*
X138880000Y-74596359D02*
X138880000Y-74903641D01*
%TO.C,R4*%
X137272500Y-77237258D02*
X137272500Y-76762742D01*
X136227500Y-77237258D02*
X136227500Y-76762742D01*
%TO.C,C10*%
X110140000Y-90357836D02*
X110140000Y-90142164D01*
X110860000Y-90357836D02*
X110860000Y-90142164D01*
D12*
%TO.C,U5*%
X141700000Y-88180000D02*
X143300000Y-88180000D01*
X141700000Y-91320000D02*
X143300000Y-91320000D01*
D13*
X140400000Y-88800000D02*
G75*
G03*
X140400000Y-88800000I-100000J0D01*
G01*
D11*
%TO.C,J6*%
X92015000Y-101860000D02*
X93815000Y-101860000D01*
X100485000Y-101860000D02*
X98685000Y-101860000D01*
X92015000Y-100260000D02*
X92015000Y-101860000D01*
X100485000Y-100260000D02*
X100485000Y-101860000D01*
X93815000Y-101860000D02*
X93815000Y-102800000D01*
X93285000Y-97390000D02*
X99215000Y-97390000D01*
%TO.C,C25*%
X152010000Y-94859420D02*
X152010000Y-95140580D01*
X150990000Y-94859420D02*
X150990000Y-95140580D01*
%TO.C,R2*%
X99227500Y-74512742D02*
X99227500Y-74987258D01*
X100272500Y-74512742D02*
X100272500Y-74987258D01*
%TO.C,R14*%
X118477500Y-93512742D02*
X118477500Y-93987258D01*
X119522500Y-93512742D02*
X119522500Y-93987258D01*
%TO.C,FB2*%
X126800000Y-93900000D02*
X125200000Y-93900000D01*
X125200000Y-93900000D02*
X125200000Y-97100000D01*
X126800000Y-97100000D02*
X126800000Y-93900000D01*
X125200000Y-97100000D02*
X126800000Y-97100000D01*
D10*
%TO.C,M1*%
X135100000Y-66100000D02*
X135100000Y-58300000D01*
X135100000Y-58300000D02*
X114900000Y-58300000D01*
X116100000Y-91100000D02*
X114900000Y-89900000D01*
X123900000Y-91100000D02*
X126100000Y-91100000D01*
X114900000Y-58300000D02*
X114900000Y-66100000D01*
X133900000Y-91100000D02*
X135100000Y-89900000D01*
X114500000Y-65900000D02*
G75*
G03*
X114500000Y-65900000I-200000J0D01*
G01*
X114400000Y-65900000D02*
G75*
G03*
X114400000Y-65900000I-100000J0D01*
G01*
D12*
%TO.C,U3*%
X108300000Y-98180000D02*
X106700000Y-98180000D01*
X108300000Y-101320000D02*
X106700000Y-101320000D01*
D13*
X109800000Y-100700000D02*
G75*
G03*
X109800000Y-100700000I-100000J0D01*
G01*
D11*
%TO.C,R11*%
X96477500Y-94762742D02*
X96477500Y-95237258D01*
X97522500Y-94762742D02*
X97522500Y-95237258D01*
%TO.C,R12*%
X97977500Y-84762742D02*
X97977500Y-85237258D01*
X99022500Y-84762742D02*
X99022500Y-85237258D01*
%TO.C,R9*%
X153522500Y-74512742D02*
X153522500Y-74987258D01*
X152477500Y-74512742D02*
X152477500Y-74987258D01*
%TO.C,J5*%
X92015000Y-90260000D02*
X92015000Y-91860000D01*
X93285000Y-87390000D02*
X99215000Y-87390000D01*
X100485000Y-91860000D02*
X98685000Y-91860000D01*
X92015000Y-91860000D02*
X93815000Y-91860000D01*
X93815000Y-91860000D02*
X93815000Y-92800000D01*
X100485000Y-90260000D02*
X100485000Y-91860000D01*
%TO.C,R8*%
X139120000Y-74596359D02*
X139120000Y-74903641D01*
X139880000Y-74596359D02*
X139880000Y-74903641D01*
%TO.C,FB4*%
X94700000Y-96600000D02*
X96300000Y-96600000D01*
X96300000Y-93400000D02*
X94700000Y-93400000D01*
X96300000Y-96600000D02*
X96300000Y-93400000D01*
X94700000Y-93400000D02*
X94700000Y-96600000D01*
%TO.C,D3*%
X113930000Y-98590000D02*
X112520000Y-98590000D01*
X112520000Y-99250000D02*
X112520000Y-98590000D01*
X112520000Y-100910000D02*
X112520000Y-100250000D01*
X112520000Y-100910000D02*
X114550000Y-100910000D01*
%TO.C,FB3*%
X96304000Y-83400000D02*
X94704000Y-83400000D01*
X94704000Y-83400000D02*
X94704000Y-86600000D01*
X96304000Y-86600000D02*
X96304000Y-83400000D01*
X94704000Y-86600000D02*
X96304000Y-86600000D01*
%TO.C,D2*%
X104515000Y-76265000D02*
X104515000Y-77735000D01*
X104515000Y-77735000D02*
X106800000Y-77735000D01*
X106800000Y-76265000D02*
X104515000Y-76265000D01*
%TO.C,C21*%
X93490000Y-84859420D02*
X93490000Y-85140580D01*
X94510000Y-84859420D02*
X94510000Y-85140580D01*
D12*
%TO.C,U4*%
X141700000Y-81320000D02*
X143300000Y-81320000D01*
X141700000Y-78180000D02*
X143300000Y-78180000D01*
D13*
X140400000Y-78800000D02*
G75*
G03*
X140400000Y-78800000I-100000J0D01*
G01*
D11*
%TO.C,R10*%
X97977500Y-94762742D02*
X97977500Y-95237258D01*
X99022500Y-94762742D02*
X99022500Y-95237258D01*
%TO.C,C23*%
X93490000Y-104859420D02*
X93490000Y-105140580D01*
X94510000Y-104859420D02*
X94510000Y-105140580D01*
%TO.C,J4*%
X100485000Y-81860000D02*
X98685000Y-81860000D01*
X93285000Y-77390000D02*
X99215000Y-77390000D01*
X92015000Y-81860000D02*
X93815000Y-81860000D01*
X92015000Y-80260000D02*
X92015000Y-81860000D01*
X100485000Y-80260000D02*
X100485000Y-81860000D01*
X93815000Y-81860000D02*
X93815000Y-82800000D01*
%TO.C,J7*%
X149515000Y-81860000D02*
X151315000Y-81860000D01*
X149515000Y-80260000D02*
X149515000Y-81860000D01*
X151315000Y-81860000D02*
X151315000Y-82800000D01*
X157985000Y-80260000D02*
X157985000Y-81860000D01*
X157985000Y-81860000D02*
X156185000Y-81860000D01*
X150785000Y-77390000D02*
X156715000Y-77390000D01*
%TO.C,R6*%
X137272500Y-86762742D02*
X137272500Y-87237258D01*
X136227500Y-86762742D02*
X136227500Y-87237258D01*
%TO.C,C6*%
X125140580Y-103510000D02*
X124859420Y-103510000D01*
X125140580Y-102490000D02*
X124859420Y-102490000D01*
%TO.C,FB6*%
X153800000Y-86600000D02*
X153800000Y-83400000D01*
X152200000Y-83400000D02*
X152200000Y-86600000D01*
X152200000Y-86600000D02*
X153800000Y-86600000D01*
X153800000Y-83400000D02*
X152200000Y-83400000D01*
%TO.C,R18*%
X99022500Y-104762742D02*
X99022500Y-105237258D01*
X97977500Y-104762742D02*
X97977500Y-105237258D01*
%TO.C,J9*%
X150785000Y-97390000D02*
X156715000Y-97390000D01*
X151315000Y-101860000D02*
X151315000Y-102800000D01*
X149515000Y-101860000D02*
X151315000Y-101860000D01*
X149515000Y-100260000D02*
X149515000Y-101860000D01*
X157985000Y-101860000D02*
X156185000Y-101860000D01*
X157985000Y-100260000D02*
X157985000Y-101860000D01*
%TO.C,R5*%
X153977500Y-74512742D02*
X153977500Y-74987258D01*
X155022500Y-74512742D02*
X155022500Y-74987258D01*
%TO.C,C19*%
X145140000Y-89357836D02*
X145140000Y-89142164D01*
X145860000Y-89357836D02*
X145860000Y-89142164D01*
D15*
%TO.C,J2*%
X104097000Y-70271000D02*
X104097000Y-69509000D01*
D12*
X104325000Y-70965000D02*
X110675000Y-70965000D01*
X110675000Y-67535000D02*
X104325000Y-67535000D01*
X110675000Y-70965000D02*
X110675000Y-67535000D01*
X104325000Y-67535000D02*
X104325000Y-70965000D01*
D11*
%TO.C,C1*%
X98859420Y-69380000D02*
X99140580Y-69380000D01*
X98859420Y-70400000D02*
X99140580Y-70400000D01*
%TO.C,R13*%
X97522500Y-84762742D02*
X97522500Y-85237258D01*
X96477500Y-84762742D02*
X96477500Y-85237258D01*
%TO.C,R19*%
X131522500Y-93987258D02*
X131522500Y-93512742D01*
X130477500Y-93987258D02*
X130477500Y-93512742D01*
D12*
%TO.C,SW1*%
X108536500Y-73750000D02*
X106463500Y-73750000D01*
X108536500Y-75750000D02*
X106463500Y-75750000D01*
D13*
X110100000Y-74750000D02*
G75*
G03*
X110100000Y-74750000I-100000J0D01*
G01*
D11*
%TO.C,C7*%
X125140580Y-92490000D02*
X124859420Y-92490000D01*
X125140580Y-93510000D02*
X124859420Y-93510000D01*
%TO.C,R3*%
X109237258Y-77522500D02*
X108762742Y-77522500D01*
X109237258Y-76477500D02*
X108762742Y-76477500D01*
%TO.C,C12*%
X139140000Y-79357836D02*
X139140000Y-79142164D01*
X139860000Y-79357836D02*
X139860000Y-79142164D01*
%TO.C,R17*%
X96477500Y-104762742D02*
X96477500Y-105237258D01*
X97522500Y-104762742D02*
X97522500Y-105237258D01*
%TO.C,R1*%
X109237258Y-73022500D02*
X108762742Y-73022500D01*
X109237258Y-71977500D02*
X108762742Y-71977500D01*
D12*
%TO.C,SW2*%
X141463500Y-75750000D02*
X143536500Y-75750000D01*
X141463500Y-73750000D02*
X143536500Y-73750000D01*
D13*
X140100000Y-74750000D02*
G75*
G03*
X140100000Y-74750000I-100000J0D01*
G01*
D11*
%TO.C,C20*%
X145860000Y-99357836D02*
X145860000Y-99142164D01*
X145140000Y-99357836D02*
X145140000Y-99142164D01*
D12*
%TO.C,U2*%
X108300000Y-88180000D02*
X106700000Y-88180000D01*
X108300000Y-91320000D02*
X106700000Y-91320000D01*
D13*
X109800000Y-90700000D02*
G75*
G03*
X109800000Y-90700000I-100000J0D01*
G01*
D11*
%TO.C,R16*%
X156522500Y-104762742D02*
X156522500Y-105237258D01*
X155477500Y-104762742D02*
X155477500Y-105237258D01*
%TO.C,J3*%
X128360000Y-98240000D02*
X128360000Y-99450000D01*
X121140000Y-100260000D02*
X122140000Y-100260000D01*
X128360000Y-99450000D02*
X128860000Y-99450000D01*
X121140000Y-99450000D02*
X121640000Y-99450000D01*
X121640000Y-99450000D02*
X121640000Y-98240000D01*
X128860000Y-100260000D02*
X127860000Y-100260000D01*
X120840000Y-99560000D02*
X120840000Y-102060000D01*
X121140000Y-101760000D02*
X128860000Y-101760000D01*
X127860000Y-100260000D02*
X127860000Y-101760000D01*
X121140000Y-97740000D02*
X121140000Y-101760000D01*
X122140000Y-100260000D02*
X122140000Y-101760000D01*
X120840000Y-102060000D02*
X123340000Y-102060000D01*
X128860000Y-101760000D02*
X128860000Y-97740000D01*
X128860000Y-97740000D02*
X121140000Y-97740000D01*
X121640000Y-98240000D02*
X128360000Y-98240000D01*
%TO.C,C5*%
X142640580Y-87510000D02*
X142359420Y-87510000D01*
X142640580Y-86490000D02*
X142359420Y-86490000D01*
%TO.C,J8*%
X149515000Y-90260000D02*
X149515000Y-91860000D01*
X149515000Y-91860000D02*
X151315000Y-91860000D01*
X157985000Y-90260000D02*
X157985000Y-91860000D01*
X157985000Y-91860000D02*
X156185000Y-91860000D01*
X150785000Y-87390000D02*
X156715000Y-87390000D01*
X151315000Y-91860000D02*
X151315000Y-92800000D01*
%TO.C,D1*%
X104515000Y-73235000D02*
X106800000Y-73235000D01*
X106800000Y-71765000D02*
X104515000Y-71765000D01*
X104515000Y-71765000D02*
X104515000Y-73235000D01*
%TO.C,FB8*%
X153800000Y-106600000D02*
X153800000Y-103400000D01*
X153800000Y-103400000D02*
X152200000Y-103400000D01*
X152200000Y-106600000D02*
X153800000Y-106600000D01*
X152200000Y-103400000D02*
X152200000Y-106600000D01*
D12*
%TO.C,U1*%
X108300000Y-81320000D02*
X106700000Y-81320000D01*
X108300000Y-78180000D02*
X106700000Y-78180000D01*
D13*
X109800000Y-80700000D02*
G75*
G03*
X109800000Y-80700000I-100000J0D01*
G01*
D11*
%TO.C,FB7*%
X152200000Y-93400000D02*
X152200000Y-96600000D01*
X153800000Y-93400000D02*
X152200000Y-93400000D01*
X153800000Y-96600000D02*
X153800000Y-93400000D01*
X152200000Y-96600000D02*
X153800000Y-96600000D01*
%TO.C,C16*%
X104140000Y-90142164D02*
X104140000Y-90357836D01*
X104860000Y-90142164D02*
X104860000Y-90357836D01*
%TO.C,C11*%
X110140000Y-100142164D02*
X110140000Y-100357836D01*
X110860000Y-100142164D02*
X110860000Y-100357836D01*
%TO.C,FB1*%
X100650000Y-69090000D02*
X100650000Y-70690000D01*
X100650000Y-70690000D02*
X103850000Y-70690000D01*
X103850000Y-70690000D02*
X103850000Y-69090000D01*
X103850000Y-69090000D02*
X100650000Y-69090000D01*
%TO.C,C3*%
X142640580Y-76490000D02*
X142359420Y-76490000D01*
X142640580Y-77510000D02*
X142359420Y-77510000D01*
%TO.C,C8*%
X124510000Y-95359420D02*
X124510000Y-95640580D01*
X123490000Y-95359420D02*
X123490000Y-95640580D01*
%TO.C,FB5*%
X94700000Y-106600000D02*
X96300000Y-106600000D01*
X94700000Y-103400000D02*
X94700000Y-106600000D01*
X96300000Y-103400000D02*
X94700000Y-103400000D01*
X96300000Y-106600000D02*
X96300000Y-103400000D01*
%TO.C,R15*%
X155022500Y-104762742D02*
X155022500Y-105237258D01*
X153977500Y-104762742D02*
X153977500Y-105237258D01*
%TD*%
%LPC*%
D16*
%TO.C,C15*%
X104500000Y-79770000D03*
X104500000Y-80730000D03*
%TD*%
D17*
%TO.C,C24*%
X151500000Y-84225000D03*
X151500000Y-85775000D03*
%TD*%
D18*
%TO.C,J1*%
X140000000Y-70800000D03*
X145000000Y-70800000D03*
D19*
X143800000Y-71900000D03*
X143150000Y-71900000D03*
X142500000Y-71900000D03*
X141850000Y-71900000D03*
X141200000Y-71900000D03*
D20*
X146225000Y-71850000D03*
X138775000Y-71850000D03*
D21*
X146375000Y-68050000D03*
X138625000Y-68050000D03*
%TD*%
D22*
%TO.C,C4*%
X150000000Y-70730000D03*
X150000000Y-69770000D03*
%TD*%
D16*
%TO.C,C9*%
X110500000Y-79770000D03*
X110500000Y-80730000D03*
%TD*%
%TO.C,C17*%
X104500000Y-99790000D03*
X104500000Y-100750000D03*
%TD*%
D23*
%TO.C,R20*%
X129000000Y-94575000D03*
X129000000Y-92925000D03*
%TD*%
D22*
%TO.C,C14*%
X139500000Y-99730000D03*
X139500000Y-98770000D03*
%TD*%
D17*
%TO.C,C26*%
X151500000Y-104225000D03*
X151500000Y-105775000D03*
%TD*%
D22*
%TO.C,C18*%
X145500000Y-79730000D03*
X145500000Y-78770000D03*
%TD*%
D17*
%TO.C,C22*%
X94000000Y-94225000D03*
X94000000Y-95775000D03*
%TD*%
D22*
%TO.C,C13*%
X139500000Y-89730000D03*
X139500000Y-88770000D03*
%TD*%
D24*
%TO.C,SW3*%
X140875000Y-84750000D03*
X144125000Y-84750000D03*
%TD*%
D25*
%TO.C,D4*%
X121000000Y-92962500D03*
X121000000Y-94537500D03*
%TD*%
D26*
%TO.C,U6*%
X141250000Y-98800000D03*
X141250000Y-99750000D03*
X141250000Y-100700000D03*
X143750000Y-100700000D03*
X143750000Y-98800000D03*
%TD*%
D27*
%TO.C,M2*%
X145288000Y-106172000D03*
X145288000Y-121412000D03*
X104648000Y-106172000D03*
X104648000Y-121412000D03*
D28*
X142748000Y-106172000D03*
D29*
X140208000Y-106172000D03*
X137668000Y-106172000D03*
X135128000Y-106172000D03*
X132588000Y-106172000D03*
X130048000Y-106172000D03*
X127508000Y-106172000D03*
X124968000Y-106172000D03*
X122428000Y-106172000D03*
X119888000Y-106172000D03*
X117348000Y-106172000D03*
X114808000Y-106172000D03*
X112268000Y-106172000D03*
X109728000Y-106172000D03*
X107188000Y-106172000D03*
X107188000Y-121412000D03*
X109728000Y-121412000D03*
X112268000Y-121412000D03*
X114808000Y-121412000D03*
X117348000Y-121412000D03*
X119888000Y-121412000D03*
X122428000Y-121412000D03*
X124968000Y-121412000D03*
X127508000Y-121412000D03*
X130048000Y-121412000D03*
X132588000Y-121412000D03*
X135128000Y-121412000D03*
X137668000Y-121412000D03*
X140208000Y-121412000D03*
D28*
X142748000Y-121412000D03*
%TD*%
D30*
%TO.C,C2*%
X143275000Y-103250000D03*
X141725000Y-103250000D03*
%TD*%
D31*
%TO.C,R7*%
X138500000Y-74240000D03*
X138500000Y-75260000D03*
%TD*%
D23*
%TO.C,R4*%
X136750000Y-77825000D03*
X136750000Y-76175000D03*
%TD*%
D22*
%TO.C,C10*%
X110500000Y-90730000D03*
X110500000Y-89770000D03*
%TD*%
D26*
%TO.C,U5*%
X141250000Y-88800000D03*
X141250000Y-89750000D03*
X141250000Y-90700000D03*
X143750000Y-90700000D03*
X143750000Y-88800000D03*
%TD*%
D32*
%TO.C,J6*%
X94375000Y-101950000D03*
X95625000Y-101950000D03*
X96875000Y-101950000D03*
X98125000Y-101950000D03*
D33*
X92525000Y-98600000D03*
X99975000Y-98600000D03*
%TD*%
D17*
%TO.C,C25*%
X151500000Y-94225000D03*
X151500000Y-95775000D03*
%TD*%
D34*
%TO.C,R2*%
X99750000Y-73925000D03*
X99750000Y-75575000D03*
%TD*%
%TO.C,R14*%
X119000000Y-92925000D03*
X119000000Y-94575000D03*
%TD*%
D35*
%TO.C,FB2*%
X126000000Y-96287500D03*
X126000000Y-94712500D03*
%TD*%
D18*
%TO.C,H4*%
X93750000Y-121875000D03*
X95075825Y-125075825D03*
X92424175Y-122424175D03*
X95075825Y-122424175D03*
X91875000Y-123750000D03*
D36*
X93750000Y-123750000D03*
D18*
X95625000Y-123750000D03*
X92424175Y-125075825D03*
X93750000Y-125625000D03*
%TD*%
D37*
%TO.C,M1*%
X115300000Y-67000000D03*
X115300000Y-69000000D03*
X115300000Y-71000000D03*
X115300000Y-73000000D03*
X115300000Y-75000000D03*
X115300000Y-77000000D03*
X115300000Y-79000000D03*
X115300000Y-81000000D03*
X115300000Y-83000000D03*
X115300000Y-85000000D03*
X115300000Y-87000000D03*
D38*
X115300000Y-89000000D03*
D39*
X117000000Y-90900000D03*
D40*
X119000000Y-90900000D03*
X121000000Y-90900000D03*
X123000000Y-90900000D03*
X127000000Y-90900000D03*
X129000000Y-90900000D03*
X131000000Y-90900000D03*
D39*
X133000000Y-90900000D03*
D41*
X134700000Y-89000000D03*
D42*
X134700000Y-87000000D03*
X134700000Y-85000000D03*
X134700000Y-83000000D03*
X134700000Y-81000000D03*
X134700000Y-79000000D03*
X134700000Y-77000000D03*
X134700000Y-75000000D03*
X134700000Y-73000000D03*
X134700000Y-71000000D03*
X134700000Y-69000000D03*
X134700000Y-67000000D03*
%TD*%
D43*
%TO.C,U3*%
X108750000Y-100700000D03*
X108750000Y-99750000D03*
X108750000Y-98800000D03*
X106250000Y-98800000D03*
X106250000Y-100700000D03*
%TD*%
D34*
%TO.C,R11*%
X97000000Y-94175000D03*
X97000000Y-95825000D03*
%TD*%
%TO.C,R12*%
X98500000Y-84175000D03*
X98500000Y-85825000D03*
%TD*%
%TO.C,R9*%
X153000000Y-73925000D03*
X153000000Y-75575000D03*
%TD*%
D32*
%TO.C,J5*%
X94375000Y-91950000D03*
X95625000Y-91950000D03*
X96875000Y-91950000D03*
X98125000Y-91950000D03*
D33*
X99975000Y-88600000D03*
X92525000Y-88600000D03*
%TD*%
D31*
%TO.C,R8*%
X139500000Y-74240000D03*
X139500000Y-75260000D03*
%TD*%
D25*
%TO.C,FB4*%
X95500000Y-94212500D03*
X95500000Y-95787500D03*
%TD*%
D44*
%TO.C,D3*%
X114250000Y-100400000D03*
X114250000Y-99100000D03*
X112250000Y-99750000D03*
%TD*%
D18*
%TO.C,H3*%
X158125000Y-123750000D03*
X157575825Y-125075825D03*
X156250000Y-125625000D03*
X154375000Y-123750000D03*
X156250000Y-121875000D03*
X157575825Y-122424175D03*
D36*
X156250000Y-123750000D03*
D18*
X154924175Y-125075825D03*
X154924175Y-122424175D03*
%TD*%
D25*
%TO.C,FB3*%
X95504000Y-84212500D03*
X95504000Y-85787500D03*
%TD*%
D45*
%TO.C,D2*%
X105212500Y-77000000D03*
X106787500Y-77000000D03*
%TD*%
D17*
%TO.C,C21*%
X94000000Y-84225000D03*
X94000000Y-85775000D03*
%TD*%
D26*
%TO.C,U4*%
X141250000Y-78800000D03*
X141250000Y-79750000D03*
X141250000Y-80700000D03*
X143750000Y-80700000D03*
X143750000Y-78800000D03*
%TD*%
D34*
%TO.C,R10*%
X98500000Y-94175000D03*
X98500000Y-95825000D03*
%TD*%
D17*
%TO.C,C23*%
X94000000Y-104225000D03*
X94000000Y-105775000D03*
%TD*%
D32*
%TO.C,J4*%
X94375000Y-81950000D03*
X95625000Y-81950000D03*
X96875000Y-81950000D03*
X98125000Y-81950000D03*
D33*
X99975000Y-78600000D03*
X92525000Y-78600000D03*
%TD*%
D32*
%TO.C,J7*%
X151875000Y-81950000D03*
X153125000Y-81950000D03*
X154375000Y-81950000D03*
X155625000Y-81950000D03*
D33*
X157475000Y-78600000D03*
X150025000Y-78600000D03*
%TD*%
D34*
%TO.C,R6*%
X136750000Y-86175000D03*
X136750000Y-87825000D03*
%TD*%
D30*
%TO.C,C6*%
X125775000Y-103000000D03*
X124225000Y-103000000D03*
%TD*%
D25*
%TO.C,FB6*%
X153000000Y-84212500D03*
X153000000Y-85787500D03*
%TD*%
D34*
%TO.C,R18*%
X98500000Y-104175000D03*
X98500000Y-105825000D03*
%TD*%
D32*
%TO.C,J9*%
X151875000Y-101950000D03*
X153125000Y-101950000D03*
X154375000Y-101950000D03*
X155625000Y-101950000D03*
D33*
X157475000Y-98600000D03*
X150025000Y-98600000D03*
%TD*%
D34*
%TO.C,R5*%
X154500000Y-73925000D03*
X154500000Y-75575000D03*
%TD*%
D22*
%TO.C,C19*%
X145500000Y-89730000D03*
X145500000Y-88770000D03*
%TD*%
D46*
%TO.C,J2*%
X104960000Y-69885000D03*
X104960000Y-68615000D03*
X106230000Y-69885000D03*
X106230000Y-68615000D03*
X107500000Y-69885000D03*
X107500000Y-68615000D03*
X108770000Y-69885000D03*
X108770000Y-68615000D03*
X110040000Y-69885000D03*
X110040000Y-68615000D03*
%TD*%
D47*
%TO.C,C1*%
X98225000Y-69890000D03*
X99775000Y-69890000D03*
%TD*%
D34*
%TO.C,R13*%
X97000000Y-84175000D03*
X97000000Y-85825000D03*
%TD*%
D23*
%TO.C,R19*%
X131000000Y-94575000D03*
X131000000Y-92925000D03*
%TD*%
D18*
%TO.C,H2*%
X156250000Y-70625000D03*
X157575825Y-70075825D03*
X154924175Y-70075825D03*
X154924175Y-67424175D03*
X156250000Y-66875000D03*
X157575825Y-67424175D03*
X154375000Y-68750000D03*
X158125000Y-68750000D03*
D36*
X156250000Y-68750000D03*
%TD*%
D48*
%TO.C,SW1*%
X109125000Y-74750000D03*
X105875000Y-74750000D03*
%TD*%
D30*
%TO.C,C7*%
X125775000Y-93000000D03*
X124225000Y-93000000D03*
%TD*%
D49*
%TO.C,R3*%
X109825000Y-77000000D03*
X108175000Y-77000000D03*
%TD*%
D22*
%TO.C,C12*%
X139500000Y-79730000D03*
X139500000Y-78770000D03*
%TD*%
D34*
%TO.C,R17*%
X97000000Y-104175000D03*
X97000000Y-105825000D03*
%TD*%
D49*
%TO.C,R1*%
X109825000Y-72500000D03*
X108175000Y-72500000D03*
%TD*%
D24*
%TO.C,SW2*%
X140875000Y-74750000D03*
X144125000Y-74750000D03*
%TD*%
D22*
%TO.C,C20*%
X145500000Y-99730000D03*
X145500000Y-98770000D03*
%TD*%
D43*
%TO.C,U2*%
X108750000Y-90700000D03*
X108750000Y-89750000D03*
X108750000Y-88800000D03*
X106250000Y-88800000D03*
X106250000Y-90700000D03*
%TD*%
D34*
%TO.C,R16*%
X156000000Y-104175000D03*
X156000000Y-105825000D03*
%TD*%
D50*
%TO.C,J3*%
X123750000Y-99450000D03*
D51*
X126250000Y-99450000D03*
%TD*%
D30*
%TO.C,C5*%
X143275000Y-87000000D03*
X141725000Y-87000000D03*
%TD*%
D32*
%TO.C,J8*%
X151875000Y-91950000D03*
X153125000Y-91950000D03*
X154375000Y-91950000D03*
X155625000Y-91950000D03*
D33*
X157475000Y-88600000D03*
X150025000Y-88600000D03*
%TD*%
D45*
%TO.C,D1*%
X105212500Y-72500000D03*
X106787500Y-72500000D03*
%TD*%
D25*
%TO.C,FB8*%
X153000000Y-104212500D03*
X153000000Y-105787500D03*
%TD*%
D43*
%TO.C,U1*%
X108750000Y-80700000D03*
X108750000Y-79750000D03*
X108750000Y-78800000D03*
X106250000Y-78800000D03*
X106250000Y-80700000D03*
%TD*%
D25*
%TO.C,FB7*%
X153000000Y-94212500D03*
X153000000Y-95787500D03*
%TD*%
D16*
%TO.C,C16*%
X104500000Y-89770000D03*
X104500000Y-90730000D03*
%TD*%
%TO.C,C11*%
X110500000Y-99770000D03*
X110500000Y-100730000D03*
%TD*%
D52*
%TO.C,FB1*%
X103037500Y-69890000D03*
X101462500Y-69890000D03*
%TD*%
D30*
%TO.C,C3*%
X143275000Y-77000000D03*
X141725000Y-77000000D03*
%TD*%
D17*
%TO.C,C8*%
X124000000Y-94725000D03*
X124000000Y-96275000D03*
%TD*%
D25*
%TO.C,FB5*%
X95500000Y-104212500D03*
X95500000Y-105787500D03*
%TD*%
D18*
%TO.C,H1*%
X92424175Y-70075825D03*
X92424175Y-67424175D03*
X95075825Y-67424175D03*
X91875000Y-68750000D03*
D36*
X93750000Y-68750000D03*
D18*
X95625000Y-68750000D03*
X93750000Y-70625000D03*
X93750000Y-66875000D03*
X95075825Y-70075825D03*
%TD*%
D34*
%TO.C,R15*%
X154500000Y-104175000D03*
X154500000Y-105825000D03*
%TD*%
M02*
